<svg width="19" height="20" viewBox="0 0 19 20" fill="none" xmlns="http://www.w3.org/2000/svg">
<path d="M13.3813 0.0100088C13.3384 -0.0374912 11.7917 0.0287588 10.4457 1.47501C9.09976 2.92001 9.30684 4.57751 9.33714 4.62001C9.36744 4.66251 11.2563 4.72876 12.4621 3.04751C13.6679 1.36626 13.4243 0.0587588 13.3813 0.0100088ZM17.5657 14.6763C17.5051 14.5563 14.6301 13.1338 14.8977 10.3988C15.1654 7.66251 17.0126 6.91251 17.0417 6.83126C17.0707 6.75001 16.2879 5.84376 15.4583 5.38501C14.8493 5.06157 14.1752 4.87627 13.4849 4.84251C13.3485 4.83876 12.875 4.72376 11.9015 4.98751C11.2601 5.16126 9.81441 5.72376 9.41668 5.74626C9.01769 5.76876 7.83083 5.09376 6.55431 4.91501C5.73739 4.75876 4.87123 5.07876 4.25128 5.32501C3.63259 5.57001 2.45583 6.26751 1.63259 8.12126C0.809361 9.97376 1.23992 12.9088 1.548 13.8213C1.85608 14.7325 2.33714 16.2263 3.15532 17.3163C3.88259 18.5463 4.84724 19.4 5.25002 19.69C5.6528 19.98 6.78916 20.1725 7.57704 19.7738C8.21088 19.3888 9.35481 19.1675 9.80684 19.1838C10.2576 19.2 11.1465 19.3763 12.0568 19.8575C12.7778 20.1038 13.4596 20.0013 14.1427 19.7263C14.8258 19.45 15.8144 18.4025 16.9685 16.2788C17.4066 15.2913 17.6061 14.7575 17.5657 14.6763Z" fill="white"/>
<path d="M13.3813 0.0100088C13.3384 -0.0374912 11.7917 0.0287588 10.4457 1.47501C9.09976 2.92001 9.30684 4.57751 9.33714 4.62001C9.36744 4.66251 11.2563 4.72876 12.4621 3.04751C13.6679 1.36626 13.4243 0.0587588 13.3813 0.0100088ZM17.5657 14.6763C17.5051 14.5563 14.6301 13.1338 14.8977 10.3988C15.1654 7.66251 17.0126 6.91251 17.0417 6.83126C17.0707 6.75001 16.2879 5.84376 15.4583 5.38501C14.8493 5.06157 14.1752 4.87627 13.4849 4.84251C13.3485 4.83876 12.875 4.72376 11.9015 4.98751C11.2601 5.16126 9.81441 5.72376 9.41668 5.74626C9.01769 5.76876 7.83083 5.09376 6.55431 4.91501C5.73739 4.75876 4.87123 5.07876 4.25128 5.32501C3.63259 5.57001 2.45583 6.26751 1.63259 8.12126C0.809361 9.97376 1.23992 12.9088 1.548 13.8213C1.85608 14.7325 2.33714 16.2263 3.15532 17.3163C3.88259 18.5463 4.84724 19.4 5.25002 19.69C5.6528 19.98 6.78916 20.1725 7.57704 19.7738C8.21088 19.3888 9.35481 19.1675 9.80684 19.1838C10.2576 19.2 11.1465 19.3763 12.0568 19.8575C12.7778 20.1038 13.4596 20.0013 14.1427 19.7263C14.8258 19.45 15.8144 18.4025 16.9685 16.2788C17.4066 15.2913 17.6061 14.7575 17.5657 14.6763Z" fill="white"/>
</svg>
