<svg width="23" height="21" viewBox="0 0 23 21" fill="none" xmlns="http://www.w3.org/2000/svg">
<path fill-rule="evenodd" clip-rule="evenodd" d="M11.4976 0C5.51527 0 0.666656 4.80013 0.666656 10.7226C0.666656 15.4593 3.76912 19.479 8.07369 20.898C8.61556 20.9948 8.81102 20.6647 8.81102 20.3809C8.81102 20.1261 8.80234 19.451 8.79908 18.5576C5.78566 19.2048 5.14932 17.1192 5.14932 17.1192C4.65848 15.8807 3.94721 15.5507 3.94721 15.5507C2.96445 14.8852 4.02214 14.9003 4.02214 14.9003C5.11022 14.9755 5.68033 16.0054 5.68033 16.0054C6.64679 17.6438 8.21703 17.1708 8.83166 16.8967C8.93048 16.2033 9.21281 15.7302 9.52121 15.4625C7.117 15.1927 4.58898 14.2725 4.58898 10.1625C4.58898 8.99392 5.01141 8.03497 5.70096 7.28673C5.59128 7.01474 5.21664 5.92356 5.80847 4.44858C5.80847 4.44858 6.71738 4.15939 8.78605 5.54622C9.65261 5.30863 10.5767 5.1893 11.4965 5.185C12.4184 5.1893 13.3436 5.30863 14.2069 5.54622C16.2767 4.15832 17.1845 4.44858 17.1845 4.44858C17.7763 5.92356 17.405 7.01474 17.292 7.28673C17.987 8.03497 18.404 8.99285 18.404 10.1625C18.404 14.2832 15.8738 15.1884 13.4609 15.4539C13.8464 15.7851 14.1939 16.4387 14.1939 17.4385C14.1939 18.8726 14.1809 20.0294 14.1809 20.3809C14.1809 20.668 14.3742 21.0012 14.9269 20.8959C19.2293 19.4747 22.3285 15.4582 22.3285 10.7226C22.3285 4.80013 17.4799 0 11.4976 0Z" fill="white"/>
</svg>
