<svg width="19" height="19" viewBox="0 0 19 19" fill="none" xmlns="http://www.w3.org/2000/svg">
<path d="M18.2828 9.40229C18.2828 8.79693 18.2286 8.22221 18.1357 7.66283H9.38928V11.1188H14.3972C14.1727 12.2529 13.5148 13.2107 12.5396 13.8621V16.1609H15.5273C17.2766 14.5594 18.2828 12.1992 18.2828 9.40229Z" fill="#4285F4"/>
<path d="M9.38934 18.3908C11.8972 18.3908 13.9948 17.5632 15.5273 16.1609L12.5396 13.8621C11.7037 14.4138 10.6433 14.751 9.38934 14.751C6.96665 14.751 4.91548 13.1341 4.18016 10.9502H1.09955V13.318C2.62437 16.3219 5.75917 18.3908 9.38934 18.3908Z" fill="#34A853"/>
<path d="M4.18012 10.9502C3.98661 10.3985 3.88599 9.80841 3.88599 9.19539C3.88599 8.58236 3.99435 7.99232 4.18012 7.4406V5.07278H1.0995C0.464803 6.31416 0.101013 7.7088 0.101013 9.19539C0.101013 10.682 0.464803 12.0766 1.0995 13.318L4.18012 10.9502Z" fill="#FBBC05"/>
<path d="M9.38934 3.63984C10.7594 3.63984 11.9823 4.10728 12.9498 5.01916L15.597 2.39847C13.9948 0.911878 11.8972 0 9.38934 0C5.75917 0 2.62437 2.06897 1.09955 5.0728L4.18016 7.44061C4.91548 5.2567 6.96665 3.63984 9.38934 3.63984Z" fill="#EA4335"/>
</svg>
