<svg width="19" height="18" viewBox="0 0 19 18" fill="none" xmlns="http://www.w3.org/2000/svg">
<path d="M18.697 8.50003C18.7004 9.8199 18.3889 11.1219 17.7879 12.3C17.0752 13.7118 15.9795 14.8992 14.6237 15.7293C13.2678 16.5594 11.7053 16.9994 10.1111 17C8.7779 17.0035 7.46273 16.6951 6.27271 16.1L0.515137 18L2.43433 12.3C1.83325 11.1219 1.52176 9.8199 1.52524 8.50003C1.52585 6.92179 1.9703 5.37488 2.80879 4.03258C3.64728 2.69028 4.84671 1.6056 6.27271 0.900029C7.46273 0.30496 8.7779 -0.00341276 10.1111 2.84881e-05H10.6161C12.7215 0.11502 14.7101 0.99479 16.2011 2.47089C17.6921 3.94699 18.5808 5.91568 18.697 8.00003V8.50003Z" fill="#212529"/>
</svg>
