<svg width="248" height="27" viewBox="0 0 248 27" fill="none" xmlns="http://www.w3.org/2000/svg">
<path d="M13.016 17.008L18.584 1.904C18.648 1.712 18.7227 1.57333 18.808 1.488C18.8933 1.40267 19.0533 1.36 19.288 1.36H24.728C25.176 1.36 25.4 1.56267 25.4 1.968V25.808C25.4 26.256 25.1867 26.48 24.76 26.48H19.928C19.5013 26.48 19.288 26.256 19.288 25.808V15.12L15.768 24.336C15.704 24.528 15.6293 24.6667 15.544 24.752C15.4587 24.8373 15.2987 24.88 15.064 24.88H10.968C10.7333 24.88 10.5733 24.8373 10.488 24.752C10.424 24.6453 10.3493 24.5067 10.264 24.336L0.696 2.224C0.589333 1.98933 0.578667 1.78667 0.664 1.616C0.770667 1.44533 0.952 1.36 1.208 1.36H6.648C7.032 1.36 7.29867 1.53067 7.448 1.872L13.016 17.008ZM0.632 6.672C0.632 6.43733 0.749333 6.29867 0.984 6.256C1.21867 6.21333 1.38933 6.30933 1.496 6.544L6.456 18.032C6.56267 18.2667 6.63733 18.4693 6.68 18.64C6.72267 18.8107 6.744 19.0027 6.744 19.216V25.872C6.744 26.2773 6.53067 26.48 6.104 26.48H1.304C0.856 26.48 0.632 26.2773 0.632 25.872V6.672ZM34.424 8.144C34.872 8.144 35.096 8.35733 35.096 8.784V17.328C35.096 18.6507 35.352 19.6213 35.864 20.24C36.376 20.8373 37.2613 21.136 38.52 21.136C39.7787 21.136 40.664 20.8373 41.176 20.24C41.7093 19.6213 41.976 18.6507 41.976 17.328V12.144C41.976 11.3547 41.9013 10.6507 41.752 10.032C41.6027 9.41333 41.3147 8.90133 40.888 8.496C40.4827 8.06933 39.9067 7.74933 39.16 7.536C38.4133 7.30133 37.4533 7.184 36.28 7.184H28.6C28.152 7.184 27.928 6.97067 27.928 6.544V2C27.928 1.57333 28.152 1.36 28.6 1.36H36.12C38.2747 1.36 40.1307 1.56267 41.688 1.968C43.2453 2.37333 44.5253 3.00267 45.528 3.856C46.5307 4.688 47.2667 5.76533 47.736 7.088C48.2267 8.41067 48.472 9.98933 48.472 11.824V17.552C48.472 19.3653 48.2267 20.88 47.736 22.096C47.2667 23.2907 46.584 24.2507 45.688 24.976C44.8133 25.7013 43.768 26.2133 42.552 26.512C41.336 26.8107 39.992 26.96 38.52 26.96C37.048 26.96 35.704 26.8107 34.488 26.512C33.272 26.2133 32.2267 25.7013 31.352 24.976C30.4773 24.2507 29.7947 23.2907 29.304 22.096C28.8347 20.88 28.6 19.3653 28.6 17.552V8.784C28.6 8.35733 28.8133 8.144 29.24 8.144H34.424ZM62.0198 25.712C62.1478 26.224 61.9664 26.48 61.4758 26.48H56.4838C56.0998 26.48 55.8438 26.3093 55.7158 25.968L48.5798 2.128C48.4731 1.89333 48.4624 1.712 48.5478 1.584C48.6544 1.43467 48.8358 1.36 49.0918 1.36H54.4358C54.8411 1.36 55.1078 1.53067 55.2358 1.872L62.0198 25.712ZM69.5718 1.36C70.1051 1.36 70.2651 1.616 70.0518 2.128L63.5558 24.784C63.4918 25.0827 63.3531 25.232 63.1398 25.232C62.9478 25.232 62.8091 25.0827 62.7238 24.784L60.0358 15.28C59.9291 14.9387 59.9184 14.6507 60.0038 14.416L63.3638 1.872C63.4491 1.53067 63.6944 1.36 64.0998 1.36H69.5718ZM79.1013 25.808C79.1013 26.256 78.8879 26.48 78.4613 26.48H73.0213C72.5946 26.48 72.3813 26.256 72.3813 25.808V1.968C72.3813 1.56267 72.5946 1.36 73.0213 1.36H78.4293C78.8773 1.36 79.1013 1.56267 79.1013 1.968V25.808ZM82.9595 26.48C82.5115 26.48 82.2875 26.2667 82.2875 25.84V8.528C82.2875 8.10133 82.5008 7.888 82.9275 7.888H88.3355C88.7835 7.888 89.0075 8.10133 89.0075 8.528V11.28H95.9195C96.3248 11.28 96.5275 11.4933 96.5275 11.92V15.664C96.5275 16.112 96.3248 16.336 95.9195 16.336H89.0075V20.912H97.3595C97.7648 20.912 97.9675 21.1253 97.9675 21.552V25.808C97.9675 26.256 97.7648 26.48 97.3595 26.48H82.9595ZM82.2875 6.928C81.8395 6.928 81.6155 6.71467 81.6155 6.288V2C81.6155 1.57333 81.8395 1.36 82.2875 1.36H97.1355C97.5622 1.36 97.7755 1.57333 97.7755 2V6.256C97.7755 6.704 97.5622 6.928 97.1355 6.928H82.2875ZM114.177 25.968C114.049 26.3093 113.782 26.48 113.377 26.48H107.873C107.617 26.48 107.436 26.4053 107.329 26.256C107.244 26.128 107.254 25.9467 107.361 25.712L114.913 1.872C115.041 1.53067 115.297 1.36 115.681 1.36H120.193C120.684 1.36 120.865 1.616 120.737 2.128L114.177 25.968ZM123.457 26.48C123.052 26.48 122.806 26.3093 122.721 25.968L121.921 22.864H116.801C116.545 22.864 116.364 22.8 116.257 22.672C116.15 22.5227 116.14 22.3307 116.225 22.096L117.409 17.776C117.537 17.3707 117.782 17.168 118.145 17.168H120.449L119.169 12.208C119.084 11.952 119.094 11.6533 119.201 11.312L121.505 2.96C121.59 2.66133 121.729 2.512 121.921 2.512C122.113 2.512 122.262 2.66133 122.369 2.96L129.665 25.744C129.878 26.2347 129.718 26.48 129.185 26.48H123.457ZM144.102 10.32C144.102 9.168 143.729 8.34667 142.982 7.856C142.257 7.344 141.148 7.088 139.654 7.088H132.006C131.558 7.088 131.334 6.87467 131.334 6.448V2C131.334 1.57333 131.558 1.36 132.006 1.36H139.654C143.046 1.36 145.681 2.096 147.558 3.568C149.436 5.04 150.374 7.09867 150.374 9.744V10.384C150.374 11.8133 150.108 13.0933 149.574 14.224C149.062 15.3547 148.294 16.3147 147.27 17.104L151.59 25.744C151.761 26.2347 151.59 26.48 151.078 26.48H145.126C144.721 26.48 144.476 26.3093 144.39 25.968L141.542 19.216C140.924 19.28 140.294 19.312 139.654 19.312C139.484 19.312 139.302 19.312 139.11 19.312C138.94 19.312 138.758 19.3013 138.566 19.28V25.84C138.566 26.2667 138.342 26.48 137.894 26.48H132.646C132.22 26.48 132.006 26.2667 132.006 25.84V8.528C132.006 8.10133 132.22 7.888 132.646 7.888H137.894C138.342 7.888 138.566 8.10133 138.566 8.528V13.552C138.758 13.5733 138.94 13.584 139.11 13.584C139.302 13.584 139.484 13.584 139.654 13.584C141.148 13.584 142.257 13.328 142.982 12.816C143.729 12.304 144.102 11.472 144.102 10.32ZM172.496 17.84C172.496 19.5893 172.25 21.0507 171.76 22.224C171.269 23.3973 170.576 24.336 169.68 25.04C168.805 25.744 167.76 26.2347 166.544 26.512C165.328 26.8107 164.005 26.96 162.576 26.96C161.104 26.96 159.76 26.8107 158.544 26.512C157.328 26.2133 156.272 25.7013 155.376 24.976C154.501 24.2507 153.818 23.2907 153.328 22.096C152.858 20.88 152.624 19.3653 152.624 17.552V10.32C152.624 8.50667 152.858 6.992 153.328 5.776C153.818 4.56 154.501 3.58933 155.376 2.864C156.272 2.13867 157.328 1.62667 158.544 1.328C159.76 1.02933 161.104 0.879999 162.576 0.879999C164.048 0.879999 165.392 1.04 166.608 1.36C167.824 1.65867 168.869 2.17067 169.744 2.896C170.618 3.6 171.29 4.53867 171.76 5.712C172.25 6.864 172.496 8.28267 172.496 9.968V10.256C172.474 10.6827 172.261 10.896 171.856 10.896H166.64C166.192 10.896 165.968 10.672 165.968 10.224V9.744C165.968 8.67733 165.712 7.83467 165.2 7.216C164.709 6.576 163.834 6.256 162.576 6.256C161.317 6.256 160.421 6.56533 159.888 7.184C159.376 7.78133 159.12 8.74133 159.12 10.064V17.776C159.12 19.0987 159.376 20.0693 159.888 20.688C160.421 21.2853 161.317 21.584 162.576 21.584C163.834 21.584 164.709 21.2853 165.2 20.688C165.712 20.0693 165.968 19.0987 165.968 17.776V17.264C165.968 16.816 166.192 16.592 166.64 16.592H171.856C172.282 16.592 172.496 16.816 172.496 17.264V17.84ZM183.573 16.976C183.125 16.976 182.901 16.7627 182.901 16.336V11.376C182.901 10.9493 183.125 10.736 183.573 10.736H188.981V1.968C188.981 1.56267 189.195 1.36 189.621 1.36H194.869C195.317 1.36 195.541 1.56267 195.541 1.968V25.808C195.541 26.256 195.328 26.48 194.901 26.48H189.621C189.195 26.48 188.981 26.256 188.981 25.808V16.976H183.573ZM181.941 25.808C181.941 26.256 181.717 26.48 181.269 26.48H176.021C175.595 26.48 175.381 26.256 175.381 25.808V1.968C175.381 1.56267 175.595 1.36 176.021 1.36H181.269C181.717 1.36 181.941 1.56267 181.941 1.968V25.808ZM205.476 25.808C205.476 26.256 205.263 26.48 204.836 26.48H199.396C198.97 26.48 198.756 26.256 198.756 25.808V1.968C198.756 1.56267 198.97 1.36 199.396 1.36H204.804C205.252 1.36 205.476 1.56267 205.476 1.968V25.808ZM221.239 25.712C221.367 26.224 221.185 26.48 220.695 26.48H215.703C215.319 26.48 215.063 26.3093 214.935 25.968L207.799 2.128C207.692 1.89333 207.681 1.712 207.767 1.584C207.873 1.43467 208.055 1.36 208.311 1.36H213.655C214.06 1.36 214.327 1.53067 214.455 1.872L221.239 25.712ZM228.791 1.36C229.324 1.36 229.484 1.616 229.271 2.128L222.775 24.784C222.711 25.0827 222.572 25.232 222.359 25.232C222.167 25.232 222.028 25.0827 221.943 24.784L219.255 15.28C219.148 14.9387 219.137 14.6507 219.223 14.416L222.583 1.872C222.668 1.53067 222.913 1.36 223.319 1.36H228.791ZM232.272 26.48C231.824 26.48 231.6 26.2667 231.6 25.84V8.528C231.6 8.10133 231.813 7.888 232.24 7.888H237.648C238.096 7.888 238.32 8.10133 238.32 8.528V11.28H245.232C245.637 11.28 245.84 11.4933 245.84 11.92V15.664C245.84 16.112 245.637 16.336 245.232 16.336H238.32V20.912H246.672C247.077 20.912 247.28 21.1253 247.28 21.552V25.808C247.28 26.256 247.077 26.48 246.672 26.48H232.272ZM231.6 6.928C231.152 6.928 230.928 6.71467 230.928 6.288V2C230.928 1.57333 231.152 1.36 231.6 1.36H246.448C246.875 1.36 247.088 1.57333 247.088 2V6.256C247.088 6.704 246.875 6.928 246.448 6.928H231.6Z" fill="#1D3557"/>
</svg>
