<svg width="234" height="178" viewBox="0 0 234 178" fill="none" xmlns="http://www.w3.org/2000/svg">
<g clip-path="url(#clip0_2290_47)">
<path d="M193.148 0.888931H40.852C39.3618 0.888931 38.1537 2.10197 38.1537 3.59834V83.2962C38.1537 84.7926 39.3618 86.0057 40.852 86.0057H193.148C194.638 86.0057 195.846 84.7926 195.846 83.2962V3.59834C195.846 2.10197 194.638 0.888931 193.148 0.888931Z" fill="#1D3557"/>
<path d="M71.1258 79.8548C71.858 80.0737 72.5741 80.3437 73.2688 80.663C73.3423 80.6881 73.4064 80.7353 73.4523 80.7981C73.5355 80.9332 73.4303 81.1027 73.3349 81.2304C72.4224 82.434 71.9111 84.7529 71.2237 86.099C71.0084 86.519 70.6488 86.099 70.1791 86.099C70.0452 86.0912 69.9148 86.0537 69.7972 85.9891C69.6796 85.9245 69.5777 85.8345 69.499 85.7256C69.3449 85.5067 69.2245 85.2657 69.1418 85.0108C68.7482 84.0815 68.4769 83.1046 68.3345 82.1049C68.2929 81.7045 68.266 81.2476 67.9578 80.9921" fill="white"/>
<path d="M193.148 85.733H41.0477C39.6044 85.7207 38.4742 84.7701 38.4154 83.2766C38.3959 82.7632 38.4154 82.2474 38.4154 81.734V3.64501C38.4166 2.99499 38.6713 2.37128 39.1249 1.90753C39.5785 1.44379 40.195 1.17689 40.8422 1.16405H192.967C194.413 1.17633 195.521 2.14661 195.575 3.64501C195.636 5.41116 195.575 7.1896 195.575 8.9582V83.2422C195.576 83.8937 195.322 84.5196 194.868 84.9853C194.414 85.451 193.797 85.7195 193.148 85.733C192.798 85.7453 192.798 86.293 193.148 86.2808C195.007 86.2071 196.118 84.7504 196.118 82.9769V9.03926C196.118 7.24118 196.167 5.43573 196.118 3.63518C196.112 2.83121 195.789 2.06228 195.22 1.49654C194.652 0.930797 193.883 0.614301 193.082 0.616271H41.4489C41.1102 0.603555 40.771 0.614226 40.4337 0.648205C38.7212 0.893845 37.8821 2.36768 37.8821 3.9668V81.6996C37.8821 82.2203 37.8675 82.746 37.8821 83.2668C37.8857 83.6661 37.9675 84.0609 38.1229 84.4285C38.2784 84.7961 38.5045 85.1293 38.7882 85.4092C39.0719 85.6891 39.4078 85.9101 39.7766 86.0596C40.1454 86.2092 40.5399 86.2843 40.9376 86.2808C42.0605 86.3053 43.1859 86.2808 44.3087 86.2808H193.148C193.216 86.2743 193.279 86.2426 193.325 86.192C193.371 86.1413 193.396 86.0753 193.396 86.0069C193.396 85.9384 193.371 85.8724 193.325 85.8217C193.279 85.7711 193.216 85.7394 193.148 85.733Z" fill="black"/>
<path d="M72.9899 81.5031C72.7217 81.8194 72.5136 82.1824 72.3759 82.5741C72.2046 82.972 72.0529 83.3798 71.916 83.8023C71.6346 84.6571 71.3924 85.5217 71.1405 86.3913C71.1223 86.4607 71.1321 86.5345 71.1677 86.5967C71.2034 86.6589 71.262 86.7044 71.3309 86.7235C71.3998 86.7426 71.4734 86.7336 71.5357 86.6985C71.5981 86.6635 71.6442 86.6052 71.664 86.5362C71.9086 85.7011 72.1533 84.861 72.4101 84.0283C72.5324 83.6352 72.6548 83.2447 72.8187 82.8664C72.9826 82.4881 73.2199 82.1123 73.3373 81.7168C73.3469 81.673 73.3424 81.6272 73.3244 81.5861C73.3063 81.545 73.2758 81.5108 73.237 81.4884C73.1983 81.4659 73.1535 81.4564 73.1091 81.4613C73.0646 81.4661 73.0229 81.4851 72.9899 81.5154V81.5031Z" fill="black"/>
<path d="M68.7504 85.4456C70.3956 84.9751 72.1243 84.877 73.8119 85.1582C73.8971 85.1458 73.9841 85.1562 74.064 85.1884C74.1439 85.2206 74.2139 85.2733 74.267 85.3413C74.3201 85.4094 74.3544 85.4902 74.3664 85.5758C74.3784 85.6614 74.3678 85.7487 74.3354 85.8288L74.1446 87.03C75.8747 87.2 77.5874 87.5155 79.2649 87.9732C79.8484 88.1001 80.4044 88.3314 80.9064 88.6561C81.6599 89.199 82.0831 90.0808 82.4525 90.9356C83.1154 92.4783 83.705 94.0749 83.8958 95.7428C84.0866 97.4107 83.8567 99.1818 82.976 100.604C82.0439 102.117 80.4685 103.132 78.8172 103.797C76.0161 104.927 72.9043 105.161 69.9124 104.765C66.9205 104.37 64.0411 103.36 61.2963 102.08C58.5515 100.801 55.8116 99.1326 54.1578 96.5633C53.7589 95.9889 53.4817 95.3385 53.3432 94.6522C53.2535 93.9079 53.3016 93.1534 53.4851 92.4267C53.7248 91.271 54.052 90.1353 54.4636 89.0295C54.7914 88.1403 55.1853 87.251 55.8336 86.5731C56.8464 85.4996 58.3411 85.0526 59.7796 84.7381" fill="white"/>
<path d="M68.8066 85.6544C69.8864 85.3758 70.9997 85.2501 72.1141 85.281C72.6562 85.2894 73.1966 85.3461 73.7287 85.4505C73.8437 85.4726 74.0027 85.4775 74.0369 85.62C74.0403 85.7434 74.0221 85.8665 73.9831 85.9835L73.8241 86.9415C73.812 86.9907 73.8111 87.0419 73.8213 87.0914C73.8315 87.141 73.8526 87.1876 73.8831 87.2279C73.9136 87.2682 73.9527 87.3011 73.9975 87.3242C74.0423 87.3474 74.0918 87.3601 74.1421 87.3616C75.3479 87.4953 76.5453 87.6971 77.7285 87.9659C78.3132 88.0961 78.8979 88.2385 79.4703 88.408C79.9802 88.5333 80.4574 88.767 80.8696 89.0934C81.6378 89.7689 82.0023 90.8128 82.3766 91.7291C82.7398 92.572 83.0407 93.4406 83.2768 94.3279C83.7368 96.1899 83.7661 98.3294 82.8707 100.069C81.9387 101.864 80.1088 102.972 78.2667 103.64C73.9317 105.215 69.1833 104.667 64.9071 103.178C62.8613 102.481 60.8897 101.58 59.0212 100.491C57.3087 99.4815 55.6917 98.214 54.5712 96.5461C54.2578 96.1038 54.0067 95.6203 53.8251 95.1091C53.6567 94.561 53.6091 93.9826 53.6856 93.4142C53.8525 92.2169 54.1436 91.0404 54.5541 89.904C54.8713 88.8509 55.3679 87.8611 56.0219 86.9784C56.6433 86.2022 57.5387 85.7502 58.4683 85.4481C58.9282 85.2982 59.4003 85.1803 59.8725 85.0722C60.3446 84.9641 60.1318 84.2788 59.6792 84.3746C57.5754 84.8217 55.4226 85.6568 54.5076 87.7767C54.0338 88.9137 53.6533 90.0877 53.3701 91.2869C53.0716 92.4955 52.7511 93.8121 53.074 95.0477C53.3505 96.1039 54.0061 97.0472 54.6984 97.8701C55.3874 98.6725 56.1674 99.3914 57.0225 100.012C58.8181 101.341 60.8633 102.319 62.9207 103.166C67.4024 105.011 72.4223 105.976 77.1878 104.699C79.2501 104.146 81.3956 103.178 82.7753 101.481C84.1551 99.7836 84.4878 97.4844 84.2138 95.3252C84.0933 94.4239 83.8751 93.5384 83.5631 92.6846C83.2138 91.6374 82.7717 90.6237 82.242 89.6559C81.9845 89.1967 81.6454 88.7887 81.2415 88.4522C80.8003 88.1245 80.3027 87.8814 79.7737 87.735C78.5394 87.3704 77.2803 87.097 76.0063 86.917C75.3898 86.8269 74.7717 86.7532 74.1519 86.6959L74.4699 87.1159L74.6314 86.0327C74.6754 85.7281 74.7268 85.4161 74.5164 85.1607C74.338 84.9782 74.098 84.8695 73.8437 84.8561C73.4987 84.8045 73.1513 84.7676 72.804 84.7455C71.4181 84.6586 70.028 84.8251 68.7014 85.2368C68.6741 85.2444 68.6486 85.2573 68.6262 85.2748C68.6039 85.2923 68.5852 85.314 68.5712 85.3388C68.5572 85.3635 68.5483 85.3908 68.5448 85.419C68.5413 85.4473 68.5434 85.4759 68.551 85.5033C68.5585 85.5307 68.5714 85.5564 68.5888 85.5788C68.6062 85.6013 68.6279 85.62 68.6525 85.6341C68.6772 85.6481 68.7043 85.6571 68.7324 85.6606C68.7606 85.6641 68.7891 85.662 68.8164 85.6544H68.8066Z" fill="black"/>
<path d="M77.4129 67.9167C77.6872 69.6397 78.3693 71.2714 79.4018 72.6748C79.7492 73.1464 80.1357 73.8416 79.7003 74.242C79.5664 74.342 79.423 74.4284 79.2722 74.4999C78.6606 74.888 78.6508 75.7625 78.6875 76.4896C78.7682 78.0346 78.6581 79.7713 77.5352 80.83C76.4124 81.8887 74.7219 81.8961 73.2321 81.6185C69.1393 80.8546 65.2594 77.9462 64.2808 73.8833C63.8234 71.9821 64.0166 69.9654 64.5695 68.0887C64.9829 66.6934 65.6165 65.3203 66.6734 64.3205C68.5791 62.5176 71.6028 62.2744 74.0369 63.2422C75.7029 63.9054 77.3077 66.1211 77.4129 67.9094" fill="white"/>
<path d="M64.4717 73.8317C64.1145 72.0828 64.298 70.2626 64.753 68.5505C65.1591 67.0226 65.8123 65.4775 67.0184 64.4114C68.0908 63.5142 69.4366 63.0124 70.8322 62.9892C72.1582 62.9425 73.6529 63.2004 74.7464 63.9865C75.9843 64.8708 76.9824 66.3938 77.1806 67.9167C77.2172 68.1943 77.6331 68.2164 77.6307 67.9167C77.6111 66.4134 76.6986 64.9322 75.6222 63.9374C74.5018 62.9032 73.0071 62.4635 71.5074 62.3898C69.9645 62.2843 68.4299 62.6917 67.1407 63.5492C65.7511 64.5318 64.912 66.0351 64.3934 67.6195C63.7231 69.6608 63.5323 71.842 64.0852 73.9349C64.0988 73.9854 64.1318 74.0284 64.177 74.0544C64.2222 74.0804 64.2759 74.0874 64.3261 74.0737C64.3764 74.06 64.4192 74.0268 64.4452 73.9815C64.4711 73.9361 64.478 73.8822 64.4644 73.8317H64.4717Z" fill="black"/>
<path d="M77.2172 67.9167C77.3681 69.2496 77.7778 70.5398 78.4233 71.7143C78.7364 72.2719 79.1817 72.7657 79.4605 73.3405C79.5755 73.5861 79.6832 73.8784 79.4361 74.0626C79.189 74.2469 78.9468 74.3255 78.7536 74.5785C78.4764 75.0104 78.3436 75.5198 78.3744 76.0327C78.3744 76.6173 78.4257 77.1995 78.3939 77.7865C78.3303 78.9288 78.0172 80.1594 77.0362 80.8546C75.9353 81.6333 74.5018 81.5252 73.2321 81.3925C72.9875 81.3655 72.9337 81.7733 73.1734 81.8347C74.3428 82.1417 75.676 82.1712 76.7989 81.6726C77.9218 81.1739 78.6214 80.0857 78.8636 78.8772C78.979 78.2562 79.0274 77.6245 79.008 76.9931C79.008 76.4232 78.8979 75.8091 79.0765 75.254C79.1184 75.1247 79.1865 75.0056 79.2766 74.9041C79.3667 74.8026 79.4769 74.721 79.6 74.6645C79.7302 74.6069 79.847 74.5225 79.9427 74.4167C80.0383 74.3109 80.1108 74.1861 80.1553 74.0504C80.329 73.4264 79.874 72.8222 79.5364 72.3505C78.5937 71.0085 77.9389 69.4844 77.6135 67.875C77.5695 67.6613 77.2001 67.7055 77.2295 67.9265L77.2172 67.9167Z" fill="black"/>
<path d="M76.8797 70.943C76.8512 70.9563 76.8234 70.971 76.7965 70.9872C76.7535 71.0114 76.7133 71.0402 76.6766 71.0732C76.6131 71.124 76.5621 71.1887 76.5274 71.2623C76.5039 71.3036 76.4874 71.3484 76.4784 71.395C76.4698 71.4304 76.4649 71.4666 76.4638 71.5031C76.4661 71.5394 76.471 71.5755 76.4784 71.6111C76.4987 71.7066 76.5494 71.7928 76.6228 71.8568L76.6815 71.9035C76.7145 71.9244 76.7525 71.9363 76.7916 71.9378C76.8556 71.9475 76.9211 71.9354 76.9775 71.9035C76.998 71.891 77.0177 71.877 77.0362 71.8617C77.0566 71.8473 77.0754 71.8308 77.0925 71.8126C77.1408 71.7585 77.1775 71.6949 77.2001 71.6259C77.2181 71.5781 77.2264 71.5271 77.2246 71.476C77.2254 71.4396 77.2212 71.4033 77.2124 71.368C77.2135 71.3541 77.2135 71.3401 77.2124 71.3262C77.1975 71.2755 77.1707 71.2291 77.1341 71.1911L77.0705 71.1444C77.0332 71.1225 76.9916 71.1088 76.9487 71.1043C76.9057 71.0998 76.8622 71.1046 76.8212 71.1183C76.7802 71.132 76.7426 71.1544 76.7109 71.1839C76.6792 71.2134 76.6542 71.2493 76.6375 71.2894C76.6167 71.3313 76.6057 71.3774 76.6053 71.4242C76.6049 71.471 76.6151 71.5173 76.635 71.5596L76.6057 71.4859C76.6109 71.5019 76.615 71.5184 76.6179 71.535L76.6057 71.4539C76.6081 71.4702 76.6081 71.4868 76.6057 71.5031L76.6179 71.422C76.6145 71.438 76.6096 71.4536 76.6032 71.4687L76.635 71.3974C76.6278 71.4127 76.6196 71.4274 76.6105 71.4417L76.657 71.3802C76.6475 71.3935 76.636 71.4051 76.6228 71.4146L76.6815 71.3704H76.6693H76.9653L77.0264 71.4146C77.0127 71.4057 77.001 71.394 76.9922 71.3802L77.0362 71.4392C77.0267 71.4261 77.0185 71.4121 77.0118 71.3974L77.0411 71.4662C77.0295 71.4353 77.0213 71.4031 77.0166 71.3704V71.4441C77.0142 71.418 77.0142 71.3916 77.0166 71.3655V71.4367C77.0222 71.4074 77.0304 71.3786 77.0411 71.3508L77.0166 71.4097C77.0545 71.3335 77.0995 71.2611 77.1512 71.1936L77.1708 71.1469C77.1781 71.1204 77.1781 71.0923 77.1708 71.0658C77.1667 71.0222 77.1477 70.9814 77.1169 70.9504C77.0844 70.9203 77.0433 70.9012 76.9994 70.8959C76.9555 70.8906 76.911 70.8994 76.8723 70.9209L76.8797 70.943ZM70.6267 71.8052H70.6121H70.6414H70.6267H70.6512C70.6145 71.7831 70.6732 71.8052 70.6512 71.8052L70.6732 71.8199C70.6808 71.8279 70.689 71.8353 70.6977 71.842C70.7028 71.8484 70.7085 71.8541 70.7148 71.8592C70.6903 71.8199 70.7295 71.8764 70.7148 71.8592L70.7417 71.9059C70.7453 71.9151 70.7494 71.9241 70.754 71.9329C70.754 71.9059 70.7417 71.901 70.754 71.9157C70.7526 71.9197 70.7526 71.924 70.754 71.928C70.7611 71.9481 70.7668 71.9686 70.7711 71.9894C70.7711 72.0263 70.7907 72.0656 70.798 72.1049C70.8053 72.1442 70.798 72.1221 70.798 72.1319C70.798 72.0779 70.798 72.1417 70.798 72.1319V72.1884C70.8006 72.2088 70.8006 72.2294 70.798 72.2498C70.7993 72.2588 70.7993 72.2679 70.798 72.2768C70.798 72.2768 70.798 72.3137 70.7858 72.3309C70.7735 72.3481 70.7662 72.3751 70.7858 72.3456C70.8053 72.3161 70.7858 72.3456 70.7858 72.3579L71.0744 72.2817C71.1013 72.3039 71.1087 72.3112 71.0989 72.2989C71.0891 72.2867 71.0989 72.2989 71.116 72.3235V72.3579V72.3432C71.116 72.3432 71.1013 72.407 71.116 72.3677C71.1307 72.3284 71.116 72.3874 71.116 72.3874V72.3751L71.0964 72.4021C71.1209 72.3751 71.05 72.4316 71.0818 72.4021C71.1317 72.3715 71.1677 72.3226 71.1824 72.2657C71.197 72.2089 71.189 72.1485 71.1601 72.0975C71.1305 72.0471 71.0822 72.0105 71.0258 71.9958C70.9694 71.981 70.9095 71.9894 70.8592 72.0189C70.8075 72.0523 70.7647 72.0978 70.7344 72.1516C70.706 72.2079 70.6917 72.2702 70.6928 72.3333C70.6944 72.3943 70.7105 72.4541 70.7399 72.5075C70.7693 72.561 70.811 72.6065 70.8616 72.6404C70.91 72.6682 70.9675 72.6759 71.0215 72.6616C71.0754 72.6474 71.1217 72.6124 71.1503 72.5642C71.2052 72.447 71.2296 72.3177 71.2212 72.1884C71.2145 72.0719 71.1914 71.957 71.1527 71.847C71.1124 71.715 71.032 71.5991 70.9228 71.5153C70.8691 71.4773 70.8078 71.4514 70.7432 71.4395C70.6785 71.4277 70.6121 71.4301 70.5485 71.4466C70.5233 71.4533 70.4997 71.4651 70.4791 71.4813C70.4586 71.4974 70.4415 71.5176 70.429 71.5405C70.4164 71.5635 70.4086 71.5888 70.406 71.6148C70.4034 71.6409 70.4061 71.6672 70.4139 71.6922C70.4209 71.7173 70.4329 71.7408 70.449 71.7612C70.4652 71.7817 70.4852 71.7987 70.508 71.8113C70.5308 71.8238 70.5558 71.8317 70.5817 71.8345C70.6075 71.8372 70.6337 71.8348 70.6586 71.8273L70.6267 71.8052ZM64.2173 85.0157C64.7065 83.9087 65.1493 82.7812 65.5457 81.6333C65.7438 81.0511 65.9248 80.4616 66.0961 79.8696C66.2673 79.2776 66.463 78.6856 66.5731 78.0838C66.6392 77.7276 66.123 77.5728 66.0276 77.9315C65.8686 78.5284 65.7683 79.14 65.6142 79.7345C65.46 80.3289 65.2961 80.8865 65.1249 81.4539C64.7628 82.6101 64.3469 83.7474 63.8772 84.8659C63.7941 85.0624 64.1365 85.2098 64.2246 85.0133L64.2173 85.0157ZM75.9378 69.9064C75.9792 69.8984 76.0201 69.8877 76.0601 69.8745L76.1775 69.8303C76.2607 69.8032 76.3463 69.7787 76.4222 69.759L76.547 69.7345C76.5681 69.7319 76.5894 69.7319 76.6105 69.7345H76.5983H76.7011H76.6888H76.887C76.9538 69.7345 77.0179 69.7078 77.0652 69.6603C77.1124 69.6129 77.139 69.5486 77.139 69.4814C77.139 69.4143 77.1124 69.35 77.0652 69.3025C77.0179 69.2551 76.9538 69.2284 76.887 69.2284C76.6858 69.2387 76.4868 69.275 76.295 69.3365C76.1971 69.3685 76.0993 69.4078 76.0039 69.4495C75.9623 69.4692 75.9207 69.4864 75.8815 69.5085C75.8314 69.5404 75.7847 69.5774 75.7421 69.619C75.712 69.649 75.6926 69.6881 75.6869 69.7303C75.6812 69.7724 75.6894 69.8153 75.7103 69.8524C75.7324 69.8886 75.7653 69.917 75.8044 69.9333C75.8436 69.9496 75.8868 69.9531 75.928 69.9433L75.9378 69.9064ZM76.1066 75.5217C76.0996 75.5866 76.1038 75.6523 76.1188 75.7158C76.1317 75.7665 76.1473 75.8165 76.1653 75.8656C76.2073 75.9748 76.2588 76.0801 76.3194 76.18C76.3831 76.2792 76.4569 76.3714 76.5396 76.4552C76.5763 76.492 76.6154 76.5264 76.6546 76.5608C76.6851 76.588 76.7178 76.6127 76.7524 76.6345C76.7916 76.6541 76.8356 76.6689 76.8748 76.6861C76.9264 76.7009 76.9814 76.6982 77.0313 76.6786C77.0813 76.6589 77.1234 76.6233 77.1512 76.5772C77.179 76.5311 77.1909 76.4771 77.1852 76.4236C77.1795 76.37 77.1563 76.3198 77.1194 76.2808C77.0727 76.238 77.0237 76.1978 76.9726 76.1604L76.9139 76.1186C76.9775 76.1629 76.9139 76.1186 76.8968 76.1039L76.794 76.0081C76.7793 75.9909 76.7622 75.9737 76.7475 75.9541L76.7206 75.9221L76.7011 75.8927L76.6619 75.8337C76.6375 75.7919 76.613 75.7502 76.5934 75.7084L76.5787 75.6765V75.6495C76.5758 75.6376 76.5717 75.6261 76.5665 75.6151C76.5445 75.5561 76.5127 75.5045 76.4858 75.448C76.4645 75.4144 76.4332 75.3882 76.3964 75.3732C76.3595 75.3583 76.3189 75.3552 76.2803 75.3645C76.2425 75.3766 76.2093 75.4 76.1853 75.4317C76.1612 75.4633 76.1474 75.5016 76.1457 75.5414L76.1066 75.5217Z" fill="black"/>
<path d="M66.4043 63.4043C67.3584 61.7094 69.4965 60.9479 71.4218 61.1764C73.3471 61.4048 75.0791 62.4782 76.5714 63.7212C76.9799 64.0602 77.4031 64.4581 77.4667 64.9961C77.5499 65.733 76.931 66.325 76.3365 66.7426C75.3082 67.4672 74.181 68.0389 72.9899 68.4399C72.8232 68.4733 72.6749 68.5679 72.574 68.7052C72.4615 68.914 72.6009 69.1719 72.574 69.4102C72.552 69.7394 72.2486 69.9629 72.0285 70.2085C71.8083 70.4542 71.686 70.8939 71.96 71.0756C71.8771 70.8717 71.7542 70.6865 71.5985 70.5313C71.4429 70.376 71.2577 70.2538 71.054 70.172C70.8504 70.0901 70.6323 70.0503 70.413 70.0548C70.1937 70.0594 69.9775 70.1083 69.7773 70.1985C69.5772 70.2888 69.3972 70.4185 69.2481 70.5801C69.099 70.7417 68.9838 70.9318 68.9094 71.1391C68.8351 71.3463 68.803 71.5665 68.8152 71.7864C68.8273 72.0064 68.8835 72.2216 68.9803 72.4193C69.2179 72.8558 69.5811 73.2102 70.0224 73.4362C70.1943 73.5109 70.3419 73.6326 70.4481 73.7875C70.5088 73.9281 70.53 74.0827 70.5093 74.2346C70.4677 74.8929 70.2842 75.5537 70.3943 76.1997C70.59 77.3518 71.6713 78.2778 71.6175 79.4446C71.5759 80.2552 70.9839 80.9381 70.8346 81.734C70.6781 82.5716 71.023 83.424 70.9839 84.2763C70.9154 85.6863 69.7387 86.8801 68.3858 87.2658C67.033 87.6514 65.5627 87.3468 64.2833 86.7573C63.5689 86.4257 62.8815 86.0007 62.106 85.8558C61.5629 85.7526 61.0003 85.7919 60.4498 85.7182C59.7662 85.6208 59.1176 85.3539 58.5623 84.9418C58.0071 84.5297 57.5628 83.9853 57.2695 83.3576C57.0102 82.7828 56.8512 82.1098 56.3424 81.7389C56.0876 81.5874 55.8228 81.4536 55.5498 81.3385C54.6373 80.8472 54.2165 79.6952 54.3535 78.6635C54.4905 77.6318 55.0874 76.7155 55.7871 75.9491C56.4867 75.1827 57.3038 74.5318 58.0132 73.7728C58.9964 72.7249 59.763 71.4918 60.2688 70.1447C60.648 69.1302 60.8779 68.0592 61.2889 67.0545C62.0962 65.0894 63.8698 63.3061 65.9933 63.3257" fill="black"/>
<path d="M66.5731 63.5026C67.2703 62.3382 68.5302 61.6676 69.8341 61.4662C71.2823 61.2451 72.7697 61.6897 74.0418 62.3726C74.74 62.7518 75.4017 63.195 76.0185 63.6966C76.5078 64.0847 77.293 64.6202 77.1145 65.3449C76.9359 66.0695 76.1115 66.519 75.5415 66.8752C74.8656 67.2976 74.1513 67.6546 73.4082 67.9413C73.0657 68.0739 72.5716 68.1525 72.3416 68.4719C72.2426 68.6155 72.1959 68.789 72.2095 68.9631C72.2095 69.1425 72.3025 69.3242 72.2315 69.4986C72.1606 69.673 71.9429 69.8327 71.8107 69.9899C71.7051 70.1115 71.6222 70.2514 71.5661 70.4026C71.4964 70.5538 71.476 70.7232 71.5076 70.8868C71.5392 71.0504 71.6213 71.1998 71.7423 71.3139C71.7983 71.3657 71.8708 71.396 71.947 71.3993C72.0231 71.4026 72.098 71.3788 72.1583 71.3321C72.2186 71.2853 72.2605 71.2186 72.2766 71.1438C72.2927 71.069 72.2819 70.9909 72.2462 70.9233C72.0671 70.562 71.786 70.2617 71.4379 70.0598C71.0899 69.858 70.6903 69.7636 70.2891 69.7885C69.8896 69.8254 69.5118 69.9876 69.2093 70.2521C68.9068 70.5166 68.6949 70.8701 68.6036 71.2623C68.3858 72.1614 68.8164 72.9474 69.5332 73.4731C69.7443 73.5843 69.9457 73.7133 70.135 73.8587C70.3258 74.0626 70.1913 74.4851 70.1521 74.7283C70.0402 75.2724 70.0244 75.8319 70.1056 76.3815C70.2916 77.2952 70.9716 78.0027 71.2138 78.8919C71.4878 79.9015 70.6756 80.6998 70.4799 81.6431C70.2695 82.7042 70.8126 83.7752 70.5044 84.8217C70.3628 85.2422 70.1354 85.6285 69.8368 85.9559C69.5381 86.2832 69.1748 86.5445 68.7699 86.7229C67.8036 87.1773 66.6685 87.1307 65.6606 86.8605C64.5866 86.5755 63.6717 85.9295 62.6198 85.6003C61.6143 85.2884 60.5404 85.5144 59.5594 85.0943C58.7176 84.7337 58.0327 84.0817 57.6292 83.2569C57.4654 82.833 57.2792 82.4181 57.0714 82.014C56.8038 81.6091 56.4148 81.3003 55.9608 81.1321C55.5636 80.9459 55.2309 80.645 55.0051 80.2677C54.7794 79.8905 54.6709 79.4542 54.6935 79.0147C54.7205 76.804 57.0054 75.4063 58.3386 73.9545C59.058 73.1726 59.6642 72.2927 60.1391 71.3409C60.6284 70.3387 60.9244 69.2726 61.2596 68.2115C61.8174 66.433 62.8717 64.5932 64.7138 63.9152C65.1256 63.7622 65.5575 63.6703 65.9957 63.6426C66.0737 63.6356 66.1462 63.5996 66.1991 63.5417C66.2519 63.4837 66.2812 63.408 66.2812 63.3294C66.2812 63.2508 66.2519 63.1751 66.1991 63.1171C66.1462 63.0591 66.0737 63.0231 65.9957 63.0162C64.0802 62.9229 62.4485 64.3058 61.4969 65.8656C60.9293 66.7966 60.6284 67.8455 60.3153 68.8821C60.0131 69.9574 59.5662 70.9863 58.9869 71.9403C58.3623 72.886 57.6163 73.745 56.7681 74.495C55.9559 75.2491 55.129 76.013 54.5663 76.9857C54.0454 77.8273 53.8586 78.8347 54.0428 79.8081C54.1382 80.2559 54.3406 80.6736 54.6326 81.0253C54.9245 81.3771 55.2972 81.6523 55.7186 81.8273C55.9407 81.9239 56.14 82.0666 56.3032 82.2461C56.4664 82.4257 56.5898 82.6379 56.6653 82.8688C56.8245 83.3112 57.0286 83.736 57.2745 84.1363C57.8148 84.9232 58.5836 85.5236 59.4762 85.8558C60.4939 86.2415 61.5996 86.0155 62.6149 86.3888C63.158 86.5878 63.657 86.8801 64.1854 87.1258C64.6937 87.3601 65.225 87.5404 65.7707 87.6637C67.7278 88.0887 70.0004 87.5384 70.9863 85.6298C71.1979 85.2228 71.3228 84.7761 71.3533 84.3181C71.39 83.7408 71.2432 83.1808 71.182 82.5986C71.1218 82.0445 71.2203 81.4847 71.4658 80.9848C71.7019 80.5436 71.867 80.0677 71.9551 79.5748C72.0627 78.607 71.4658 77.8013 71.0426 76.9857C70.7838 76.5116 70.6674 75.9724 70.7074 75.4333C70.7441 74.9101 70.9374 74.2862 70.7833 73.7703C70.6414 73.2938 70.0958 73.1439 69.7485 72.859C69.568 72.7268 69.42 72.5549 69.3157 72.3565C69.2114 72.1582 69.1536 71.9385 69.1467 71.7143C69.143 71.5086 69.1876 71.3049 69.2768 71.1197C69.366 70.9345 69.4974 70.773 69.6603 70.6482C69.8232 70.5233 70.013 70.4388 70.2145 70.4012C70.4159 70.3637 70.6233 70.3742 70.82 70.4321C71.0141 70.49 71.193 70.5906 71.3436 70.7266C71.4943 70.8625 71.6129 71.0304 71.6909 71.2181L72.1948 70.8275C71.9502 70.6261 72.459 70.2257 72.5814 70.0906C72.7029 69.9648 72.7934 69.8123 72.8456 69.645C72.8979 69.4778 72.9104 69.3007 72.8823 69.1277C72.8505 68.8821 72.8333 68.828 73.0731 68.7396C73.3128 68.6512 73.4792 68.5971 73.6798 68.5185C74.0745 68.3662 74.461 68.1951 74.8393 68.0051C75.5889 67.6495 76.2929 67.2042 76.9359 66.6787C77.4765 66.2144 77.9291 65.5463 77.7701 64.7995C77.6111 64.0528 76.9114 63.5394 76.339 63.0948C75.7194 62.6076 75.0588 62.1752 74.3648 61.8027C72.9972 61.0855 71.4952 60.6924 69.9613 60.9111C68.4274 61.1297 67.0012 61.928 66.2404 63.2913C66.2191 63.3359 66.2153 63.3869 66.2298 63.4342C66.2443 63.4815 66.2761 63.5215 66.3187 63.5463C66.3613 63.5711 66.4117 63.5789 66.4597 63.568C66.5078 63.5572 66.55 63.5286 66.578 63.4878L66.5731 63.5026Z" fill="black"/>
<path d="M162.93 63.171C161.463 64.9961 161.92 68.0395 160.213 69.6313C160.038 69.7648 159.892 69.9318 159.782 70.1226C159.596 70.5328 159.836 70.9234 160.191 71.2279C160.866 71.8077 160.614 72.9351 160.565 73.731C160.516 74.5687 160.401 75.4137 160.399 76.2537C160.399 76.9735 160.545 77.7276 161.013 78.2557C161.397 78.6607 161.908 78.9208 162.461 78.9926C163.273 79.1228 164.097 78.946 164.907 79.054C165.189 79.0546 165.46 79.1666 165.661 79.366C165.761 79.5308 165.818 79.7184 165.827 79.9113C165.964 80.9921 166.086 82.0746 166.194 83.1587C166.198 83.4421 166.283 83.7184 166.439 83.9546C166.661 84.2272 167.043 84.2764 167.388 84.2886C168.711 84.3228 170.028 84.0876 171.259 83.597C172.489 83.1064 173.608 82.3708 174.548 81.4343C174.738 81.2783 174.87 81.0616 174.92 80.8202C174.911 80.5711 174.825 80.331 174.675 80.1324C173.601 78.1579 173.009 75.9555 172.948 73.7065C172.804 70.157 175.101 65.9762 173.122 62.6527C172.655 61.8708 171.959 61.2531 171.128 60.8841C169.723 60.2991 168.173 60.1636 166.688 60.4959C165.377 60.7735 163.623 61.4613 163.143 62.9204" fill="white"/>
<path d="M162.781 63.0236C161.524 64.5736 161.634 66.6713 160.765 68.3982C160.561 68.8102 160.28 69.1795 159.939 69.4864C159.545 69.8425 159.285 70.2921 159.513 70.8251C159.714 71.2943 160.198 71.5104 160.308 72.0312C160.369 72.494 160.362 72.9633 160.286 73.424C160.225 74.0626 160.176 74.7062 160.129 75.3473C160.064 75.9695 160.085 76.5977 160.191 77.2142C160.299 77.7535 160.575 78.2444 160.979 78.616C161.383 78.9877 161.894 79.2211 162.439 79.2825C163.107 79.3832 163.774 79.2948 164.445 79.312C164.717 79.2997 164.988 79.3363 165.247 79.42C165.568 79.5502 165.541 79.9678 165.577 80.2626C165.667 80.9831 165.749 81.7045 165.822 82.4267C165.878 82.9597 165.842 83.6549 166.177 84.097C166.512 84.5392 167.043 84.5736 167.53 84.5883C168.096 84.5967 168.661 84.5556 169.22 84.4655C170.909 84.1901 172.501 83.4914 173.849 82.434C174.304 82.1223 174.706 81.7392 175.04 81.2992C175.397 80.7465 175.082 80.2503 174.81 79.7443C174.508 79.1823 174.252 78.5965 174.044 77.9929C173.627 76.7816 173.371 75.5205 173.281 74.242C173.216 73.1233 173.292 72.001 173.506 70.9012C173.885 68.7298 174.534 66.465 174.052 64.2542C173.837 63.1765 173.292 62.1931 172.493 61.4416C171.604 60.6886 170.509 60.2228 169.352 60.1054C168.241 59.9661 167.113 60.0556 166.037 60.3682C165.144 60.6138 164.234 61.0216 163.591 61.7217C163.29 62.0461 163.064 62.4326 162.928 62.8541C162.84 63.1292 163.258 63.2348 163.356 62.972C163.674 62.1122 164.486 61.5718 165.291 61.2157C166.178 60.832 167.13 60.6219 168.095 60.5966C169.248 60.5302 170.397 60.7853 171.414 61.3336C172.328 61.8816 173.012 62.7453 173.337 63.7629C174.008 65.7526 173.477 67.9216 173.093 69.9039C172.868 70.922 172.723 71.956 172.657 72.9966C172.619 75.2777 173.105 77.537 174.076 79.5994C174.191 79.845 174.321 80.0759 174.45 80.3093C174.634 80.6409 174.661 80.8521 174.394 81.1371C174.024 81.5296 173.614 81.8827 173.171 82.1909C172.3 82.8114 171.334 83.2844 170.311 83.591C169.297 83.9232 168.226 84.0468 167.163 83.9546C167.048 83.9553 166.935 83.9257 166.836 83.8688C166.736 83.8118 166.653 83.7296 166.595 83.6303C166.499 83.3355 166.451 83.0268 166.453 82.7165C166.385 82.0558 166.309 81.3925 166.231 80.7318C166.172 80.2405 166.209 79.5379 165.873 79.1351C165.538 78.7323 165.005 78.7249 164.56 78.7028C163.454 78.6463 162.057 78.9853 161.223 78.0248C160.462 77.1479 160.702 75.733 160.795 74.6767C160.841 74.1339 160.88 73.5935 160.924 73.0506C160.98 72.616 160.957 72.1749 160.856 71.7487C160.805 71.5636 160.723 71.3889 160.611 71.2329C160.433 71.0535 160.264 70.8649 160.105 70.6679C159.814 70.1766 160.45 69.8352 160.719 69.5011C161.859 68.0862 161.835 66.1481 162.431 64.5023C162.583 64.0746 162.799 63.6729 163.072 63.311C163.234 63.0997 162.948 62.8 162.774 63.0137L162.781 63.0236Z" fill="black"/>
<path d="M163.554 86.0965C163.136 85.2417 162.72 84.2026 163.207 83.3945C163.422 83.0801 163.703 82.8161 164.029 82.6207C166.935 80.6556 170.463 79.845 173.937 79.3586C174.565 79.2331 175.211 79.224 175.842 79.3316C176.464 79.4765 177.066 79.8843 177.264 80.4935C177.413 80.9577 177.388 81.5841 177.834 81.7782C178.019 81.8385 178.218 81.8486 178.409 81.8077C181.802 81.3815 185.247 81.632 188.544 82.5446C189.726 82.8737 190.922 83.3085 191.812 84.1584C192.703 85.0084 193.214 86.2365 193.623 87.4254C194.753 90.7195 195.386 94.5097 193.73 97.5704C192.818 99.253 191.313 100.518 189.816 101.7C186.805 104.075 183.6 106.325 179.94 107.455C177.388 108.241 174.7 108.455 172.036 108.661C168.034 108.975 164.026 109.287 160.012 109.383C158.904 109.408 157.776 109.415 156.704 109.125C155.633 108.835 154.608 108.204 154.072 107.226C153.583 106.337 153.554 105.279 153.534 104.264L153.385 96.5755C153.351 94.775 153.329 92.9032 154.08 91.2697C154.855 89.5773 156.384 88.322 158.048 87.5065C159.711 86.691 161.524 86.2218 163.305 85.6961C163.459 85.6519 163.647 85.5586 163.635 85.3965C163.623 85.2343 163.29 85.3522 163.427 85.4407" fill="black"/>
<path d="M163.757 85.9762C163.398 85.195 162.923 84.0774 163.618 83.338C163.948 83.0262 164.317 82.7595 164.716 82.5446C165.135 82.2989 165.565 82.0533 166.003 81.8445C167.748 81.0414 169.586 80.4636 171.476 80.125C172.437 79.9334 173.411 79.7639 174.384 79.6558C175.214 79.565 176.302 79.56 176.809 80.3633C177.193 80.9774 176.963 81.9698 177.875 82.1663C178.335 82.2645 178.871 82.1123 179.343 82.0705C179.884 82.0238 180.424 81.9919 180.967 81.9796C183.086 81.9249 185.204 82.1328 187.272 82.5986C189.109 83.0162 191.125 83.5443 192.226 85.2122C192.696 85.9804 193.067 86.8059 193.329 87.6686C193.629 88.5679 193.874 89.4851 194.06 90.4149C194.427 92.2228 194.525 94.1388 193.997 95.9246C193.454 97.7693 192.209 99.1941 190.78 100.425C189.311 101.686 187.767 102.858 186.159 103.935C184.537 105.059 182.792 105.991 180.958 106.713C178.994 107.414 176.95 107.862 174.874 108.044C172.718 108.27 170.553 108.41 168.393 108.568C166.169 108.73 163.941 108.87 161.712 108.953C160.631 108.993 159.54 109.052 158.456 109C157.506 108.99 156.572 108.759 155.726 108.324C155.341 108.121 155 107.843 154.724 107.505C154.448 107.168 154.242 106.778 154.119 106.359C153.85 105.377 153.906 104.345 153.874 103.35L153.742 96.6984C153.703 94.7603 153.639 92.6846 154.637 90.9504C155.516 89.4274 157.008 88.3712 158.573 87.649C159.532 87.224 160.519 86.8654 161.526 86.5755C162.016 86.4257 162.505 86.2832 162.994 86.1383C163.324 86.0376 163.828 85.9516 163.933 85.5512C163.956 85.475 163.957 85.3941 163.938 85.3171C163.918 85.2401 163.879 85.1698 163.823 85.1133C163.767 85.0569 163.698 85.0165 163.621 84.9963C163.545 84.9761 163.464 84.9769 163.388 84.9985C163.315 85.01 163.247 85.0415 163.191 85.0896C163.136 85.1377 163.094 85.2004 163.072 85.2708C163.049 85.3411 163.047 85.4163 163.065 85.488C163.083 85.5596 163.12 85.6249 163.173 85.6765C163.236 85.7331 163.319 85.7632 163.403 85.7607C163.488 85.7582 163.569 85.7232 163.629 85.663C163.689 85.6028 163.724 85.5218 163.726 85.4366C163.729 85.3514 163.699 85.2685 163.642 85.2049L163.696 85.2982L163.662 85.5561C163.5 85.8288 163.417 85.3105 163.315 85.3105C163.29 85.3105 163.258 85.3449 163.229 85.3498C163.106 85.3778 162.985 85.4131 162.867 85.4554L162.101 85.6716C161.59 85.8165 161.079 85.9614 160.572 86.1211C159.582 86.4241 158.619 86.812 157.695 87.2805C156.132 88.0887 154.674 89.28 153.864 90.8742C152.942 92.692 152.981 94.775 153.018 96.7696C153.062 99.0467 153.101 101.324 153.147 103.603C153.167 104.603 153.147 105.645 153.419 106.615C153.675 107.479 154.219 108.228 154.96 108.737C156.673 109.941 158.874 109.798 160.861 109.737C163.131 109.663 165.399 109.528 167.664 109.366C169.929 109.204 172.126 109.052 174.353 108.835C176.481 108.627 178.617 108.315 180.645 107.607C182.54 106.927 184.347 106.02 186.027 104.905C187.693 103.813 189.296 102.627 190.829 101.353C192.297 100.145 193.667 98.7691 194.41 96.9833C195.154 95.1975 195.22 93.279 194.97 91.4122C194.72 89.4897 194.189 87.6149 193.393 85.8484C193.027 84.9944 192.468 84.2376 191.761 83.6377C191.004 83.0603 190.146 82.6297 189.231 82.3677C187.186 81.7358 185.069 81.3685 182.932 81.2746C181.848 81.2206 180.762 81.2353 179.681 81.3188C179.409 81.3385 179.14 81.3655 178.871 81.395C178.622 81.4419 178.369 81.4682 178.115 81.4736C177.736 81.4466 177.736 80.9209 177.67 80.6335C177.571 80.237 177.364 79.8758 177.073 79.59C176.782 79.3043 176.418 79.1051 176.021 79.0147C175.042 78.7494 173.946 78.9951 172.956 79.1523C171.004 79.432 169.089 79.9203 167.241 80.6089C166.334 80.9556 165.459 81.3788 164.623 81.874C163.889 82.3137 162.984 82.8172 162.769 83.7187C162.554 84.6202 162.965 85.4701 163.351 86.2267C163.491 86.5018 163.885 86.2611 163.757 85.9811V85.9762ZM162.617 68.5726L162.576 68.607L162.598 68.5922L162.544 68.6168H162.571H162.507L162.617 68.6045H162.549H162.59H162.522C162.533 68.6034 162.545 68.6034 162.556 68.6045L162.495 68.5799C162.506 68.585 162.517 68.5916 162.527 68.5996L162.475 68.5578L162.507 68.5922L162.466 68.5357L162.497 68.5922L162.468 68.5284C162.48 68.5558 162.488 68.5847 162.493 68.6143L162.48 68.5406C162.485 68.5641 162.485 68.5884 162.48 68.6119L162.493 68.5357C162.488 68.5566 162.483 68.5771 162.475 68.5971L162.505 68.5284L162.48 68.5701L162.524 68.5112L162.5 68.5357L162.559 68.4915L162.529 68.5087L162.6 68.4792H162.573L162.652 68.4669H162.62H162.698C162.686 68.4692 162.673 68.4692 162.661 68.4669L162.732 68.4989L162.7 68.4792L162.762 68.5259L162.74 68.5038L162.786 68.5652C162.785 68.5579 162.785 68.5504 162.786 68.5431L162.815 68.6143C162.815 68.6086 162.815 68.6028 162.815 68.5971C162.8 68.5455 162.772 68.4984 162.735 68.4596L162.779 68.5185V68.5038L162.808 68.5701V68.5554C162.795 68.5095 162.771 68.4676 162.738 68.4337C162.704 68.3998 162.663 68.3749 162.617 68.3613C162.57 68.349 162.521 68.3491 162.473 68.3615C162.426 68.374 162.383 68.3985 162.348 68.4326C162.306 68.4762 162.275 68.5292 162.258 68.5873C162.242 68.6427 162.242 68.7014 162.258 68.7568C162.268 68.7879 162.28 68.8183 162.294 68.8477C162.334 68.9148 162.392 68.9693 162.461 69.0049C162.518 69.0346 162.58 69.0514 162.644 69.054C162.685 69.0614 162.726 69.0614 162.767 69.054C162.868 69.0264 162.955 68.9615 163.011 68.8723C163.032 68.8387 163.049 68.8023 163.06 68.7642C163.068 68.7461 163.073 68.7271 163.075 68.7077C163.08 68.6661 163.08 68.624 163.075 68.5824C163.073 68.5402 163.067 68.4983 163.058 68.4571C163.034 68.3767 162.992 68.3028 162.935 68.241C162.881 68.1797 162.811 68.1347 162.732 68.1108C162.702 68.1043 162.671 68.1002 162.639 68.0985H162.61C162.549 68.1009 162.49 68.1177 162.436 68.1476C162.395 68.1717 162.36 68.2054 162.334 68.2459C162.328 68.2532 162.324 68.2616 162.321 68.2704C162.294 68.3184 162.28 68.3725 162.28 68.4276C162.28 68.4688 162.293 68.5088 162.316 68.5429C162.339 68.5769 162.372 68.6035 162.409 68.6192C162.443 68.635 162.48 68.6401 162.517 68.634C162.563 68.6286 162.606 68.6088 162.639 68.5775L162.617 68.5726ZM162.074 66.9464C162.151 67.0093 162.249 67.0409 162.348 67.0349C162.289 67.0201 162.431 67.0349 162.348 67.0349L162.424 67.0545L162.336 67.0177C162.479 67.0888 162.627 67.1495 162.779 67.1994L162.669 67.1503L162.803 67.2117L162.703 67.1356L162.718 67.1479C162.81 67.2413 162.936 67.294 163.068 67.2942C163.199 67.2945 163.325 67.2423 163.418 67.1491C163.512 67.0559 163.564 66.9294 163.564 66.7975C163.564 66.6655 163.512 66.5388 163.42 66.4453C163.359 66.384 163.283 66.3399 163.2 66.3176C163.086 66.2727 162.968 66.2414 162.847 66.2243C162.692 66.1939 162.534 66.1758 162.375 66.1702C162.276 66.1702 162.179 66.1997 162.096 66.255C162.014 66.3103 161.95 66.389 161.912 66.481C161.874 66.5731 161.864 66.6744 161.883 66.7721C161.902 66.8698 161.95 66.9595 162.02 67.03C162.118 67.1197 162.243 67.1719 162.375 67.1773L162.534 67.197L162.402 67.1773C162.698 67.2163 162.987 67.2931 163.263 67.4058L163.143 67.3542C163.209 67.3881 163.278 67.4161 163.349 67.4377L163.229 66.5117L163.151 66.5485C163.082 66.5885 163.024 66.6462 162.985 66.7157C162.945 66.7852 162.925 66.864 162.926 66.944C162.926 67.0234 162.947 67.1013 162.987 67.1701C163.026 67.239 163.083 67.2965 163.151 67.337L163.229 67.3861C163.345 67.4533 163.482 67.4719 163.611 67.4379C163.74 67.4038 163.851 67.3199 163.919 67.2044C163.983 67.0877 164 66.9506 163.967 66.8216C163.933 66.6925 163.851 66.5815 163.738 66.5117C163.617 66.4494 163.49 66.4016 163.359 66.3692C163.263 66.3397 163.168 66.3102 163.072 66.2857C162.843 66.2299 162.61 66.1913 162.375 66.1702V67.1773C162.468 67.1773 162.559 67.1773 162.649 67.1994L162.515 67.1822C162.657 67.2061 162.798 67.2372 162.938 67.2756L163.067 66.293C163.055 66.2955 163.041 66.2955 163.028 66.293L163.156 66.3102C162.891 66.2734 162.571 66.2144 162.336 66.3716L162.424 66.3348C162.338 66.3673 162.256 66.4102 162.179 66.4625C162.112 66.5035 162.059 66.5633 162.025 66.6345C162.003 66.6846 161.995 66.7404 162.004 66.7947C162.014 66.849 162.039 66.8993 162.077 66.9391L162.074 66.9464ZM169.487 69.0245C169.364 69.0305 169.246 69.0712 169.145 69.1421C169.045 69.213 168.966 69.3111 168.919 69.4249C168.877 69.4927 168.849 69.5685 168.838 69.6476C168.827 69.7267 168.832 69.8073 168.853 69.8843C168.872 69.9384 168.907 69.986 168.952 70.0216C168.997 70.0572 169.051 70.0794 169.108 70.0857C169.169 70.088 169.229 70.0699 169.279 70.0344C169.329 69.9989 169.366 69.9479 169.384 69.8892C169.401 69.8306 169.4 69.768 169.381 69.71C169.362 69.652 169.325 69.6013 169.276 69.565C169.216 69.5204 169.143 69.4976 169.068 69.5003C168.994 69.5029 168.922 69.5309 168.865 69.5797C168.837 69.6086 168.817 69.6444 168.806 69.6836C168.796 69.7228 168.796 69.764 168.807 69.8032C168.817 69.8423 168.837 69.8781 168.866 69.907C168.894 69.9358 168.929 69.9568 168.968 69.9678C169.019 69.9812 169.072 69.9812 169.122 69.9678H169.059H169.108H169.044H169.063L169.007 69.9432L169.029 69.9555L168.98 69.9187V69.931L168.944 69.8818C168.944 69.8884 168.944 69.895 168.944 69.9015L168.919 69.845V69.8597V69.7983V69.8131V69.7492V69.7639L168.944 69.7074L168.98 69.6608L169.027 69.6239L169.081 69.5993H169.142H169.108H169.169L169.225 69.6239H169.205L169.252 69.6583L169.289 69.705L169.276 69.6829L169.301 69.7394C169.3 69.7296 169.3 69.7197 169.301 69.7099V69.7713C169.3 69.7582 169.3 69.7451 169.301 69.732V69.7934C169.315 69.709 169.338 69.6265 169.372 69.5478L169.35 69.5993C169.369 69.5561 169.393 69.5149 169.421 69.4765L169.386 69.5207C169.41 69.49 169.437 69.462 169.467 69.4372L169.426 69.4692C169.452 69.4468 169.483 69.4294 169.516 69.4176L169.467 69.4372C169.493 69.4276 169.52 69.4202 169.548 69.4151H169.496C169.548 69.4138 169.596 69.3937 169.633 69.3586C169.669 69.3224 169.689 69.2741 169.69 69.2235C169.689 69.1722 169.669 69.1233 169.632 69.087C169.596 69.0508 169.548 69.0301 169.496 69.0295L169.487 69.0245Z" fill="black"/>
<path d="M51.1536 137.096C50.1286 135.109 49.0351 133.122 47.4719 131.528C45.7447 129.766 43.521 128.58 41.2214 127.691C33.009 124.539 23.8987 125.175 15.1456 125.998C11.7207 126.32 8.10499 126.735 5.36017 128.821C0.457661 132.552 0.359807 139.847 1.19402 145.964C1.60031 148.96 2.13164 151.937 2.7866 154.888C4.186 161.193 7.68421 166.831 12.704 170.871C17.7239 174.911 23.9654 177.112 30.3987 177.111H64.3763C62.0498 163.675 57.3943 149.211 51.1536 137.096ZM182.846 137.096C183.871 135.109 184.965 133.122 186.528 131.528C188.255 129.766 190.479 128.58 192.779 127.691C200.991 124.539 210.101 125.175 218.854 125.998C222.279 126.32 225.895 126.735 228.64 128.821C233.547 132.552 233.645 139.84 232.799 145.964C232.392 148.96 231.861 151.937 231.206 154.888C229.807 161.192 226.31 166.829 221.291 170.869C216.273 174.909 210.033 177.11 203.601 177.111H169.624C171.95 163.675 176.606 149.211 182.846 137.096Z" fill="#1D3557"/>
<path d="M230.952 154.817C229.801 160.003 227.212 164.757 223.484 168.527C219.756 172.298 215.04 174.932 209.883 176.124C207.699 176.613 205.465 176.852 203.227 176.836H169.624L169.888 177.182C171.158 169.917 172.978 162.76 175.331 155.772C176.518 152.235 177.834 148.737 179.299 145.306C180.687 141.958 182.257 138.69 184.001 135.514C184.98 133.753 186.151 132.1 187.717 130.81C189.266 129.589 191.001 128.624 192.854 127.954C193.18 127.828 193.038 127.3 192.71 127.425C191.072 128.027 189.519 128.839 188.089 129.84C186.652 130.896 185.42 132.206 184.454 133.706C183.484 135.247 182.608 136.844 181.829 138.489C181.013 140.145 180.229 141.819 179.475 143.512C177.962 146.951 176.589 150.441 175.358 153.982C174.117 157.561 173.012 161.185 172.043 164.854C171.091 168.442 170.275 172.063 169.597 175.718L169.352 177.037C169.342 177.078 169.341 177.12 169.349 177.161C169.357 177.202 169.375 177.241 169.4 177.274C169.425 177.307 169.457 177.334 169.494 177.353C169.531 177.372 169.572 177.383 169.614 177.384H202.799C204.499 177.404 206.198 177.295 207.882 177.059C213.128 176.262 218.049 174.012 222.093 170.563C226.136 167.114 229.143 162.602 230.775 157.534C231.049 156.684 231.283 155.823 231.478 154.952C231.553 154.608 231.027 154.461 230.952 154.807V154.817Z" fill="black"/>
<path d="M207.76 98.8256C202.461 90.3265 191.78 86.239 181.829 86.9317C175.018 87.4058 168.503 89.7959 161.825 91.2058C147.166 94.3009 131.979 92.6404 117.015 93.3601C102.043 92.6404 86.8632 94.3009 72.2046 91.2058C65.5261 89.7959 59.0114 87.4058 52.2007 86.9317C42.2367 86.239 31.5559 90.3265 26.2693 98.8256C22.0297 105.622 21.6897 114.114 22.0811 122.125C22.6215 133.123 24.2956 144.035 27.0766 154.687C28.7615 161.093 32.5104 166.76 37.7388 170.804C42.9671 174.847 49.381 177.04 55.9803 177.04L100.705 177.082V177.114L117.027 177.096L133.349 177.114V177.082L178.073 177.04C184.673 177.04 191.087 174.847 196.315 170.804C201.543 166.76 205.292 161.093 206.977 154.687C209.75 144.03 211.415 133.114 211.946 122.112C212.337 114.102 211.997 105.61 207.76 98.8256Z" fill="#1D3557"/>
<path d="M26.0075 98.6733C24.2119 101.567 23.0719 104.814 22.4456 108.155C21.7973 111.552 21.6236 115.033 21.6652 118.472C21.7117 122.284 21.9808 126.087 22.3551 129.889C22.7416 133.819 23.2733 137.739 23.9501 141.648C24.627 145.557 25.4498 149.441 26.4185 153.299C26.5384 153.79 26.6632 154.262 26.7879 154.741C26.8122 154.805 26.8593 154.857 26.92 154.888C26.9807 154.919 27.0507 154.926 27.1164 154.908C27.182 154.89 27.2386 154.848 27.2751 154.79C27.3117 154.732 27.3255 154.663 27.3139 154.596C25.3268 146.972 23.9048 139.21 23.0597 131.375C22.6487 127.575 22.36 123.761 22.2475 119.936C22.1496 116.497 22.2255 113.029 22.7514 109.619C23.3288 105.866 24.4639 102.191 26.4846 98.9509C26.6705 98.6512 26.1983 98.3761 26.0149 98.6733H26.0075ZM207.212 154.746C209.23 147.004 210.669 139.121 211.518 131.164C211.924 127.322 212.215 123.461 212.313 119.599C212.443 116.126 212.251 112.647 211.74 109.209C211.197 105.846 210.192 102.535 208.514 99.5601C207.022 96.9344 205.035 94.6258 202.664 92.7632C197.955 89.0442 192.03 87.0349 186.083 86.6468C178.675 86.1555 171.566 88.5775 164.467 90.3117C163.559 90.5328 162.649 90.7441 161.737 90.9381C161.394 91.0093 161.539 91.5375 161.881 91.4662C169.132 89.9285 176.253 87.1872 183.747 87.1258C189.679 87.0791 195.709 88.6782 200.671 91.987C203.115 93.5963 205.236 95.6528 206.923 98.0494C208.839 100.805 210.077 103.969 210.808 107.236C211.542 110.57 211.787 114.001 211.787 117.411C211.787 121.127 211.542 124.846 211.222 128.546C210.517 136.383 209.235 144.156 207.386 151.803C207.159 152.741 206.923 153.676 206.679 154.608C206.667 154.675 206.681 154.745 206.718 154.802C206.754 154.86 206.811 154.902 206.876 154.92C206.942 154.938 207.012 154.931 207.073 154.9C207.133 154.869 207.181 154.817 207.205 154.753L207.212 154.746ZM45.0476 177.31H99.8266C100.017 177.31 100.399 177.386 100.578 177.31C100.611 177.305 100.645 177.305 100.678 177.31L100.406 177.037V177.069C100.408 177.141 100.437 177.21 100.487 177.261C100.538 177.312 100.606 177.341 100.678 177.342L114.979 177.327H133.322C133.394 177.326 133.462 177.297 133.513 177.246C133.563 177.195 133.592 177.126 133.594 177.055V177.023L133.322 177.295H170.473L185.312 177.283H190.161C190.914 177.283 191.736 177.376 192.487 177.283H192.593C192.661 177.277 192.724 177.245 192.769 177.194C192.815 177.144 192.841 177.078 192.841 177.009C192.841 176.941 192.815 176.875 192.769 176.824C192.724 176.773 192.661 176.742 192.593 176.735H135.754C135 176.735 134.176 176.642 133.427 176.735H133.327C133.255 176.736 133.187 176.766 133.136 176.816C133.085 176.867 133.055 176.936 133.053 177.008V177.04L133.327 176.765L119.026 176.752H100.683L100.957 177.028V176.996C100.955 176.923 100.925 176.855 100.874 176.804C100.823 176.753 100.755 176.724 100.683 176.723H47.3325C46.6279 176.723 45.8647 176.63 45.1528 176.723C45.1194 176.725 45.0859 176.725 45.0525 176.723C44.9846 176.729 44.9215 176.761 44.8757 176.812C44.8298 176.862 44.8043 176.928 44.8043 176.997C44.8043 177.065 44.8298 177.131 44.8757 177.182C44.9215 177.233 44.9846 177.264 45.0525 177.271L45.0476 177.31Z" fill="black"/>
<path d="M11.5275 128.858C10.5269 135.401 11.3146 142.08 12.8338 148.479C13.6093 151.739 14.5781 154.949 15.63 158.126C16.1486 159.685 16.6771 161.245 17.2348 162.793C17.6678 163.991 18.1693 165.225 19.0574 166.165C19.2951 166.417 19.561 166.641 19.85 166.831C20.146 167.028 20.4811 167.165 20.7698 167.376C21.5282 167.927 21.1833 168.835 21.1515 169.619C21.1403 170.306 21.3387 170.98 21.72 171.551C22.1013 172.122 22.6473 172.562 23.2847 172.812C23.5734 172.928 23.6981 172.459 23.4119 172.346C22.1349 171.854 21.5135 170.528 21.6652 169.209C21.7386 168.575 21.8487 167.89 21.4206 167.344C21.0438 166.853 20.4175 166.662 19.9307 166.305C18.891 165.541 18.3063 164.306 17.8562 163.129C17.318 161.709 16.8361 160.236 16.3443 158.781C14.2649 152.604 12.4448 146.269 11.7892 139.762C11.4119 136.151 11.4546 132.509 11.9164 128.909C11.9458 128.691 11.5617 128.634 11.5275 128.858ZM25.1537 174.669C25.1997 174.664 25.2421 174.642 25.2728 174.607C25.3036 174.573 25.3206 174.528 25.3206 174.481C25.3206 174.435 25.3036 174.39 25.2728 174.356C25.2421 174.321 25.1997 174.299 25.1537 174.294C25.1078 174.299 25.0654 174.321 25.0346 174.356C25.0038 174.39 24.9868 174.435 24.9868 174.481C24.9868 174.528 25.0038 174.573 25.0346 174.607C25.0654 174.642 25.1078 174.664 25.1537 174.669ZM27.8961 158.676C28.8498 163.164 30.3793 167.509 32.4463 171.601C32.5711 171.847 32.9356 171.631 32.8182 171.383C30.7596 167.327 29.2334 163.02 28.2777 158.57C28.2239 158.325 27.8423 158.425 27.8961 158.676ZM33.4567 175.247L34.3716 174.642C34.4116 174.613 34.4394 174.57 34.4496 174.521C34.4598 174.472 34.4516 174.422 34.4267 174.378C34.4017 174.335 34.3618 174.303 34.3146 174.288C34.2674 174.273 34.2162 174.276 34.171 174.296L33.261 174.913C33.2377 174.925 33.2171 174.942 33.2005 174.962C33.1839 174.982 33.1716 175.006 33.1644 175.031C33.1571 175.056 33.1551 175.083 33.1584 175.109C33.1617 175.135 33.1702 175.16 33.1835 175.183C33.1968 175.206 33.2146 175.226 33.2357 175.241C33.2569 175.257 33.281 175.268 33.3065 175.274C33.3321 175.28 33.3586 175.28 33.3844 175.276C33.4102 175.271 33.4348 175.261 33.4567 175.247ZM38.8876 90.9651C36.2651 95.2343 35.3575 100.248 35.2303 105.2C35.0933 110.577 35.7195 115.976 36.3091 121.311C36.9403 127.109 37.7076 132.889 38.6112 138.651C39.5245 144.47 40.5715 150.266 41.7523 156.04C42.9314 161.783 44.2427 167.498 45.686 173.183L46.2389 175.32C46.2561 175.384 46.2976 175.437 46.3543 175.47C46.4109 175.502 46.4781 175.511 46.541 175.494C46.604 175.476 46.6575 175.435 46.6898 175.378C46.7222 175.321 46.7307 175.253 46.7135 175.19C45.2457 169.57 43.91 163.92 42.7064 158.241C41.5028 152.562 40.4288 146.853 39.4845 141.115C38.5386 135.349 37.7272 129.563 37.0504 123.758C36.4217 118.354 35.7489 112.923 35.6486 107.487C35.5556 102.498 36.0596 97.337 38.3054 92.8123C38.5842 92.2498 38.89 91.702 39.2178 91.1666C39.3451 90.9553 39.0172 90.7637 38.8876 90.9725V90.9651ZM59.3172 91.3115C55.8507 93.7482 56.0146 98.6217 56.4207 102.38C57.0592 108.275 57.7564 114.19 58.4316 120.093C59.1068 125.996 59.804 131.967 60.4988 137.904C61.1935 143.842 61.9054 149.833 62.6173 155.797C63.3292 161.761 64.0142 167.669 64.7603 173.601C64.8533 174.353 64.9479 175.104 65.0441 175.856C65.0808 176.151 65.5456 176.156 65.5089 175.856C64.8239 170.005 64.1023 164.156 63.4026 158.305C62.7029 152.454 62.0008 146.544 61.3085 140.663C60.6162 134.782 59.9361 128.956 59.2536 123.102C58.571 117.249 57.8934 111.395 57.2206 105.539C56.9491 103.169 56.587 100.786 56.6604 98.3933C56.724 96.3913 57.0885 94.242 58.4022 92.6576C58.7251 92.2718 59.0959 91.9292 59.5055 91.6382C59.6988 91.4982 59.5055 91.1715 59.3172 91.3115ZM83.0934 94.0798C81.332 104.365 81.7919 114.824 82.5478 125.183C83.3233 135.745 84.1845 146.32 85.0064 156.888C85.4688 162.83 85.8969 168.779 86.4009 174.719C86.4278 175.031 86.9122 175.035 86.8901 174.719C86.1391 164.112 85.2413 153.512 84.4144 142.911C84.0051 137.68 83.5973 132.451 83.1912 127.224C82.79 122.041 82.4329 116.848 82.3521 111.648C82.2641 105.809 82.5136 99.9506 83.4603 94.1806C83.497 93.9349 83.1399 93.8416 83.0983 94.0798H83.0934ZM105.972 96.6148C106.6 106.578 107.148 116.547 107.618 126.522C108.088 136.496 108.45 146.475 108.704 156.458C108.851 162.061 108.949 167.664 109.049 173.267C109.049 173.337 109.077 173.405 109.127 173.454C109.176 173.504 109.243 173.532 109.313 173.532C109.384 173.532 109.451 173.504 109.5 173.454C109.55 173.405 109.578 173.337 109.578 173.267C109.465 163.282 109.177 153.296 108.822 143.318C108.467 133.34 108.002 123.365 107.432 113.395C107.106 107.799 106.744 102.206 106.346 96.6148C106.329 96.3692 105.957 96.3692 105.972 96.6148Z" fill="white"/>
<path d="M115.87 106.261C114.957 105.481 113.949 104.821 112.871 104.296C112.093 103.918 111.249 103.608 110.383 103.652C109.517 103.697 108.631 104.171 108.308 104.976C108.238 105.127 108.204 105.292 108.207 105.458C108.211 105.624 108.252 105.787 108.328 105.934C108.369 106.005 108.424 106.067 108.489 106.116C108.555 106.165 108.629 106.201 108.709 106.221C108.788 106.24 108.871 106.244 108.951 106.231C109.032 106.218 109.11 106.189 109.179 106.146C109.303 106.028 109.392 105.878 109.436 105.713C108.363 105.862 107.375 106.379 106.64 107.177C106.494 107.308 106.377 107.467 106.295 107.645C106.213 107.823 106.168 108.016 106.163 108.212C106.19 108.602 106.62 108.963 106.97 108.786C106.803 108.945 106.678 109.143 106.605 109.362C106.532 109.58 106.514 109.814 106.552 110.042C106.662 110.486 107.173 110.832 107.594 110.653C107.317 110.787 107.094 111.012 106.96 111.29C106.827 111.568 106.792 111.883 106.86 112.184C107.036 112.773 107.814 113.127 108.328 112.785C108.061 113.114 107.78 113.522 107.87 113.925C107.98 114.416 108.575 114.662 109.093 114.706C109.394 114.734 109.697 114.734 109.998 114.706C110.123 114.709 110.246 114.687 110.362 114.642C110.477 114.596 110.582 114.528 110.671 114.441C110.825 114.247 110.75 113.878 110.502 113.854C111.063 114.274 111.848 114.168 112.523 113.984C113.65 113.679 114.728 113.216 115.725 112.608M130.289 94.4507C130.89 104.931 131.283 115.423 131.468 125.927C131.652 136.431 131.624 146.93 131.382 157.425C131.244 163.321 131.038 169.21 130.766 175.092C130.749 175.419 131.255 175.419 131.27 175.092C131.759 164.603 132.027 154.108 132.074 143.606C132.122 133.104 131.953 122.605 131.568 112.11C131.343 106.214 131.049 100.328 130.685 94.4507C130.67 94.2051 130.274 94.2051 130.289 94.4507ZM153.744 94.4041C155.107 104.717 155.949 115.093 156.267 125.492C156.572 135.84 156.343 146.197 155.579 156.522C155.145 162.332 154.543 168.125 153.771 173.901C153.73 174.217 154.224 174.213 154.261 173.901C155.641 163.584 156.48 153.201 156.773 142.795C157.063 132.394 156.804 121.985 155.997 111.611C155.547 105.834 154.921 100.077 154.119 94.3402C154.089 94.129 153.717 94.1756 153.744 94.3893V94.4041ZM177.547 88.9632C179.076 94.5366 180.204 100.213 180.921 105.949C181.631 111.63 181.934 117.355 181.829 123.08C181.727 128.834 181.209 134.572 180.278 140.25C179.808 143.097 179.089 145.952 179.054 148.848C179.04 150.29 179.28 151.695 179.478 153.117C179.709 154.549 179.703 156.01 179.461 157.44C179.216 158.772 178.785 160.061 178.467 161.37C178.155 162.629 177.997 163.922 177.998 165.22C178.012 167.676 178.516 170.223 177.868 172.633C177.702 173.239 177.45 173.818 177.122 174.353C176.98 174.598 177.342 174.795 177.484 174.566C178.793 172.456 178.68 169.933 178.563 167.548C178.469 166.283 178.469 165.012 178.563 163.746C178.697 162.348 179.111 160.995 179.475 159.644C179.827 158.347 180.155 157.028 180.197 155.679C180.243 154.254 179.969 152.844 179.774 151.439C179.353 148.383 179.894 145.438 180.434 142.437C182.491 131.055 182.893 119.434 181.626 107.936C180.995 102.21 179.945 96.5371 178.484 90.9651C178.301 90.2626 178.11 89.565 177.914 88.8649C177.899 88.8185 177.866 88.7799 177.823 88.757C177.78 88.7342 177.729 88.7288 177.682 88.742C177.635 88.7552 177.595 88.786 177.57 88.8281C177.545 88.8701 177.537 88.9202 177.547 88.9681V88.9632ZM203.357 96.8826C203.621 102.162 203.69 107.444 203.565 112.729C203.439 118.013 203.113 123.286 202.586 128.548C202.064 133.831 201.35 139.091 200.443 144.328C199.991 146.928 199.491 149.522 198.941 152.107C198.67 153.388 198.386 154.665 198.09 155.939C197.796 157.199 197.559 158.369 198.019 159.624C198.398 160.653 198.801 161.636 198.997 162.719C199.195 163.762 199.262 164.826 199.198 165.885C199.069 168.031 198.414 170.111 197.29 171.94C197.01 172.39 196.709 172.826 196.387 173.247C196.223 173.461 196.58 173.738 196.756 173.535C199.499 170.385 200.384 165.721 199.327 161.717C199.187 161.195 199.015 160.682 198.811 160.182C198.567 159.59 198.305 158.995 198.263 158.349C198.261 157.656 198.357 156.966 198.55 156.3C198.701 155.652 198.848 155.001 198.995 154.35C199.572 151.75 200.101 149.137 200.582 146.512C201.54 141.294 202.298 136.044 202.858 130.761C203.417 125.478 203.78 120.185 203.946 114.881C204.109 109.55 204.076 104.219 203.846 98.887C203.817 98.2189 203.782 97.5532 203.748 96.8875C203.733 96.6419 203.337 96.6419 203.349 96.8875L203.357 96.8826ZM218.695 127.701C220.74 134.087 219.85 140.977 218.832 147.47C218.291 150.918 217.638 154.346 216.875 157.752C216.543 159.226 216.276 160.801 215.672 162.206C215.43 162.803 215.078 163.349 214.634 163.815C214.165 164.289 213.563 164.566 213.044 164.972C212.746 165.198 212.506 165.493 212.343 165.832C212.181 166.171 212.102 166.544 212.112 166.919C212.125 167.737 212.043 168.553 211.868 169.351C211.465 170.91 210.614 172.315 209.421 173.392C209.177 173.613 209.534 173.967 209.781 173.753C210.863 172.806 211.684 171.594 212.164 170.236C212.4 169.574 212.554 168.885 212.621 168.185C212.689 167.465 212.499 166.571 212.89 165.927C213.233 165.362 213.898 165.082 214.419 164.716C214.949 164.338 215.397 163.856 215.735 163.299C216.469 162.095 216.777 160.67 217.098 159.31C217.913 155.835 218.606 152.333 219.177 148.804C219.72 145.46 220.217 142.088 220.374 138.7C220.545 134.959 220.281 131.164 219.099 127.59C219.016 127.344 218.624 127.448 218.705 127.701H218.695Z" fill="white"/>
<path d="M166.869 67.0005C166.829 67.8581 166.714 68.7105 166.524 69.5478C166.876 69.7707 167.272 69.9164 167.684 69.9752C167.858 69.4127 168.174 68.9049 168.601 68.5013C169.051 68.1255 169.731 67.9708 170.233 68.2729C170.984 68.7224 170.94 69.8597 170.539 70.6384C170.137 71.4171 169.479 72.0705 169.245 72.9155C169.01 73.7605 169.516 74.9101 170.385 74.8389C170.238 75.2342 170.197 75.6613 170.267 76.0774C170.336 76.4934 170.513 76.8838 170.781 77.2095C171.048 77.5352 171.395 77.7846 171.789 77.9329C172.182 78.0811 172.607 78.123 173.022 78.0543C173.203 78.0053 173.392 77.9862 173.579 77.9978C173.768 78.047 173.946 78.1302 174.105 78.2434C174.82 78.6299 175.649 78.745 176.441 78.5677C177.233 78.3904 177.935 77.9326 178.418 77.2781C178.486 77.1547 178.587 77.0533 178.71 76.9858C178.866 76.9479 179.032 76.9662 179.177 77.0373C181.356 77.7743 184.003 76.3004 184.542 74.0504C185.051 74.0382 185.55 73.9012 185.995 73.6512C186.44 73.4011 186.817 73.0457 187.094 72.6158C187.37 72.1859 187.538 71.6946 187.582 71.1847C187.627 70.6748 187.546 70.1617 187.348 69.6903C187.734 69.53 188.077 69.2781 188.345 68.9559C188.614 68.6337 188.801 68.251 188.89 67.8404C188.979 67.4299 188.967 67.0038 188.856 66.5987C188.745 66.1936 188.538 65.8215 188.253 65.5144C189.381 63.3036 188.436 60.2847 186.259 59.1277C186.288 57.9241 186.195 56.6885 185.696 55.593C185.197 54.4974 184.229 53.564 183.047 53.3675C182.406 53.2594 181.728 53.3675 181.112 53.1611C180.221 52.8615 179.644 51.9624 178.763 51.6185C177.694 51.1985 176.461 51.7241 175.632 52.52C175.511 52.6618 175.354 52.7672 175.177 52.8246C175.018 52.8401 174.858 52.8103 174.715 52.7386C174.076 52.4758 173.465 52.1 172.78 52.0435C172.095 51.987 171.295 52.4193 171.268 53.1096C170.833 52.6743 170.297 52.3554 169.708 52.182C169.119 52.0086 168.497 51.9863 167.897 52.117C167.297 52.2477 166.74 52.5274 166.276 52.9304C165.811 53.3334 165.455 53.8468 165.24 54.4237C164.905 54.1578 164.495 54.0061 164.069 53.9906C163.642 53.9752 163.222 54.0968 162.869 54.3378C162.525 54.5909 162.248 54.9247 162.062 55.31C161.876 55.6954 161.787 56.1206 161.803 56.5485C161.816 56.6663 161.802 56.7855 161.764 56.8973C161.668 57.1061 161.411 57.1651 161.196 57.2412C160.859 57.3585 160.561 57.5674 160.335 57.8446C160.11 58.1218 159.965 58.4564 159.917 58.8113C159.87 59.1662 159.921 59.5273 160.065 59.8547C160.21 60.182 160.442 60.4627 160.736 60.6654C160.576 60.8356 160.478 61.0554 160.459 61.2887C160.44 61.522 160.5 61.7548 160.63 61.9491C160.76 62.1434 160.952 62.2875 161.175 62.3577C161.397 62.428 161.637 62.4203 161.854 62.3358C161.536 62.8565 162.055 63.564 162.654 63.6647C163.253 63.7654 163.843 63.4706 164.384 63.1734C164.286 63.6942 164.741 64.1879 165.25 64.3255C165.758 64.463 166.299 64.3402 166.81 64.2174C166.809 64.4332 166.878 64.6436 167.008 64.8158C167.138 64.9881 167.32 65.1127 167.527 65.1705C167.133 65.2638 166.705 65.3793 166.47 65.7084C166.235 66.0376 166.387 66.6369 166.791 66.6492" fill="black"/>
<path d="M166.661 67.0005C166.595 67.8351 166.466 68.6635 166.277 69.479C166.263 69.5349 166.267 69.5939 166.288 69.6474C166.31 69.7009 166.348 69.746 166.397 69.7762C166.771 70.0071 167.187 70.1623 167.62 70.2331C167.688 70.2494 167.76 70.2392 167.821 70.2045C167.881 70.1699 167.927 70.1134 167.948 70.0464C168.229 69.3095 168.711 68.3883 169.621 68.3785C170.414 68.3785 170.639 69.1891 170.517 69.8401C170.243 71.2992 168.56 72.2449 168.961 73.8759C169.122 74.5588 169.651 75.168 170.392 75.1533L170.086 74.7529C169.849 75.412 169.871 76.1374 170.149 76.7804C170.427 77.4234 170.939 77.9354 171.581 78.2115C171.891 78.3444 172.222 78.4201 172.559 78.435C172.963 78.4522 173.391 78.2508 173.761 78.4522C174.291 78.7725 174.888 78.9651 175.505 79.0147C176.129 79.0459 176.751 78.9219 177.315 78.6536C177.88 78.3854 178.37 77.9812 178.741 77.477C178.878 77.2977 178.949 77.3739 179.152 77.4377C179.281 77.4777 179.412 77.5105 179.544 77.536C179.866 77.6012 180.194 77.6284 180.522 77.617C181.127 77.5883 181.721 77.4467 182.274 77.1995C182.914 76.9251 183.483 76.5094 183.941 75.9833C184.398 75.4572 184.732 74.8343 184.916 74.1609L184.544 74.4458C185.096 74.4257 185.636 74.2792 186.123 74.0173C186.609 73.7555 187.03 73.3853 187.353 72.9351C187.683 72.4517 187.889 71.8942 187.955 71.3117C188.02 70.7292 187.942 70.1395 187.727 69.5944L187.546 70.0366C187.967 69.8512 188.341 69.5713 188.638 69.2183C188.935 68.8652 189.147 68.4485 189.258 68.0002C189.367 67.5159 189.357 67.0123 189.229 66.5326C189.101 66.053 188.859 65.6117 188.524 65.2466L188.585 65.7256C189.809 63.3061 188.83 60.0906 186.455 58.7838L186.655 59.1326C186.69 57.5802 186.526 55.9 185.581 54.6104C185.195 54.0593 184.683 53.6081 184.089 53.2938C183.402 52.9499 182.704 52.9278 181.953 52.8885C181.592 52.8868 181.236 52.7975 180.916 52.6281C180.644 52.4604 180.387 52.2697 180.148 52.0582C179.615 51.6111 179.064 51.1935 178.357 51.0879C177.632 51.0003 176.899 51.1548 176.27 51.5276C175.985 51.6893 175.718 51.8812 175.473 52.1C175.365 52.1933 175.228 52.3972 175.077 52.4217C174.925 52.4463 174.671 52.2793 174.534 52.2179C173.8 51.8813 173.014 51.4981 172.18 51.6897C171.836 51.7515 171.521 51.9237 171.282 52.1806C171.043 52.4375 170.894 52.7652 170.857 53.1145L171.554 52.8172C171.067 52.3382 170.469 51.9888 169.813 51.8009C169.158 51.6129 168.466 51.5923 167.801 51.7409C167.135 51.8895 166.517 52.2026 166.003 52.6518C165.489 53.101 165.094 53.6721 164.856 54.3132L165.521 54.1363C164.225 53.0506 162.341 53.6917 161.678 55.1754C161.519 55.5359 161.425 55.9217 161.399 56.3151C161.399 56.438 161.443 56.6566 161.35 56.7401C161.257 56.8236 160.993 56.8703 160.861 56.9268C160.51 57.0892 160.204 57.3352 159.969 57.6434C159.734 57.9516 159.577 58.3127 159.513 58.6954C159.45 59.1392 159.511 59.5917 159.689 60.0028C159.867 60.4139 160.155 60.7674 160.521 61.0241L160.435 60.3633C160.209 60.5995 160.069 60.9053 160.038 61.2313C160.007 61.5573 160.086 61.8844 160.263 62.1595C160.44 62.4346 160.704 62.6417 161.013 62.7473C161.322 62.8529 161.657 62.8507 161.964 62.7411L161.475 62.1147C161.397 62.2762 161.352 62.4517 161.343 62.6309C161.334 62.8101 161.361 62.9892 161.422 63.1578C161.483 63.3264 161.577 63.4809 161.699 63.6123C161.821 63.7437 161.967 63.8492 162.131 63.9226C162.943 64.3206 163.843 63.9103 164.577 63.5222L163.982 63.1783C163.963 63.4743 164.035 63.769 164.188 64.0226C164.341 64.2762 164.568 64.4763 164.839 64.5957C165.494 64.915 166.236 64.7701 166.908 64.5957L166.419 64.2248C166.424 64.5214 166.525 64.8084 166.707 65.0423C166.889 65.2763 167.142 65.4445 167.427 65.5217V64.829C166.874 64.974 166.189 65.2073 166.042 65.8411C166.005 65.9651 165.995 66.0958 166.013 66.2242C166.031 66.3525 166.076 66.4754 166.146 66.5845C166.216 66.6935 166.308 66.7861 166.417 66.8558C166.526 66.9255 166.648 66.9706 166.776 66.9882C167.202 67.0349 167.197 66.3692 166.776 66.3201C166.59 66.3004 166.72 65.927 166.776 65.8583C166.977 65.6372 167.327 65.5782 167.603 65.5193C167.963 65.4407 167.921 64.9297 167.603 64.829C167.475 64.7895 167.364 64.7086 167.286 64.5989C167.209 64.4891 167.17 64.3567 167.175 64.2223C167.174 64.1628 167.16 64.1041 167.134 64.0509C167.107 63.9977 167.069 63.9513 167.021 63.9153C166.974 63.8793 166.919 63.8546 166.861 63.8431C166.803 63.8316 166.743 63.8336 166.686 63.8489C166.106 63.9742 164.621 64.2223 164.758 63.1783C164.799 62.859 164.396 62.7116 164.161 62.8369C163.738 63.058 163.163 63.4043 162.664 63.2422C162.419 63.1636 162.045 62.832 162.199 62.5446C162.353 62.2572 162.086 61.7905 161.71 61.9182C161.13 62.1172 160.56 61.4785 161.003 60.9577C161.046 60.9114 161.079 60.8559 161.099 60.7952C161.118 60.7345 161.124 60.6702 161.116 60.6069C161.108 60.5437 161.086 60.483 161.051 60.4294C161.017 60.3758 160.971 60.3306 160.917 60.297C160.622 60.0797 160.415 59.7633 160.332 59.4053C160.25 59.0473 160.299 58.6716 160.469 58.3466C160.646 58.0212 160.931 57.7689 161.274 57.6342C161.636 57.4942 162.008 57.3886 162.143 56.9612C162.25 56.5829 162.17 56.1776 162.285 55.7919C162.389 55.4157 162.595 55.0757 162.879 54.8094C163.154 54.5543 163.509 54.4033 163.883 54.3823C164.257 54.3612 164.627 54.4714 164.929 54.6939C164.979 54.7411 165.041 54.7748 165.107 54.7917C165.174 54.8085 165.244 54.8081 165.311 54.7904C165.377 54.7728 165.438 54.7384 165.488 54.6906C165.537 54.6428 165.574 54.583 165.595 54.5171C165.793 54.0257 166.104 53.5883 166.502 53.24C166.901 52.8918 167.375 52.6426 167.887 52.5126C168.434 52.3825 169.005 52.394 169.547 52.5461C170.089 52.6981 170.583 52.9859 170.984 53.3822C171.042 53.4366 171.114 53.4732 171.191 53.4875C171.269 53.5018 171.349 53.4933 171.422 53.4629C171.496 53.4326 171.558 53.3817 171.603 53.3164C171.648 53.2511 171.674 53.1742 171.676 53.0948C171.718 52.6035 172.369 52.4046 172.782 52.4414C173.472 52.5004 174.057 52.9327 174.695 53.1587C174.841 53.2159 174.998 53.2383 175.155 53.2243C175.311 53.2102 175.462 53.16 175.595 53.0776C175.879 52.8983 176.085 52.6281 176.371 52.4365C176.878 52.0585 177.496 51.8629 178.127 51.8813C178.712 51.928 179.169 52.2965 179.595 52.6576C180.025 53.067 180.537 53.3802 181.097 53.5763C181.782 53.7703 182.506 53.6254 183.191 53.8047C183.759 53.9657 184.269 54.2881 184.659 54.7332C185.733 55.9074 185.882 57.5949 185.855 59.113C185.855 59.1834 185.874 59.2526 185.908 59.3138C185.943 59.3749 185.993 59.4259 186.054 59.4618C188.04 60.5451 188.928 63.2643 187.91 65.3056C187.867 65.3832 187.849 65.4729 187.86 65.5614C187.871 65.6498 187.91 65.7324 187.971 65.7968C188.207 66.0638 188.376 66.3837 188.464 66.7296C188.552 67.0756 188.556 67.4376 188.475 67.7854C188.395 68.1332 188.233 68.4566 188.003 68.7286C187.773 69.0006 187.481 69.2133 187.152 69.3488C187.077 69.392 187.019 69.459 186.987 69.5391C186.955 69.6192 186.95 69.7078 186.973 69.7909C187.153 70.221 187.224 70.6887 187.181 71.1529C187.139 71.6172 186.983 72.0638 186.729 72.4537C186.482 72.8118 186.156 73.1072 185.776 73.3166C185.396 73.5259 184.972 73.6434 184.539 73.6598C184.455 73.6614 184.373 73.6898 184.306 73.741C184.239 73.7923 184.189 73.8636 184.165 73.9447C184.025 74.4629 183.779 74.946 183.442 75.3628C183.105 75.7795 182.684 76.1207 182.208 76.3643C181.734 76.6212 181.213 76.7783 180.676 76.8261C180.438 76.8482 180.198 76.8482 179.96 76.8261C179.666 76.773 179.375 76.7033 179.089 76.6173C178.372 76.4601 178.162 77.1086 177.724 77.5114C177.322 77.8729 176.831 78.1205 176.302 78.2287C175.776 78.3422 175.228 78.3117 174.717 78.1403C174.438 78.0445 174.206 77.8725 173.937 77.7521C173.589 77.5974 173.291 77.6711 172.929 77.7202C172.573 77.7716 172.209 77.7309 171.873 77.602C171.537 77.473 171.24 77.2601 171.008 76.9833C170.79 76.694 170.646 76.3546 170.59 75.9957C170.535 75.6367 170.569 75.2696 170.69 74.9273C170.703 74.8794 170.705 74.8292 170.695 74.7805C170.685 74.7319 170.665 74.6861 170.635 74.6467C170.605 74.6074 170.566 74.5754 170.522 74.5534C170.478 74.5313 170.429 74.5197 170.38 74.5195C169.682 74.5637 169.401 73.6745 169.501 73.1022C169.651 72.2449 170.363 71.5743 170.754 70.8251C171.077 70.2085 171.243 69.4176 170.962 68.7494C170.826 68.421 170.576 68.153 170.259 67.995C169.941 67.837 169.577 67.7996 169.235 67.8897C168.256 68.1108 167.747 69.0442 167.422 69.9162L167.75 69.7295C167.361 69.6714 166.988 69.537 166.651 69.3341L166.774 69.6313C166.955 68.7698 167.057 67.8932 167.077 67.0128C167.077 66.7352 166.673 66.7426 166.651 67.0128L166.661 67.0005ZM162.153 72.8025C162.136 72.8247 162.121 72.8486 162.108 72.8737C162.097 72.9016 162.088 72.9304 162.082 72.9597C162.069 73.0014 162.054 73.0424 162.038 73.0825L162.062 73.0236C162.025 73.1112 161.978 73.1938 161.92 73.2692L161.962 73.2152C161.92 73.2716 161.87 73.322 161.815 73.365L161.874 73.3183C161.854 73.3345 161.834 73.3492 161.812 73.3626C161.774 73.3894 161.739 73.4216 161.71 73.4584C161.656 73.5136 161.625 73.5875 161.624 73.6647C161.626 73.7285 161.647 73.7902 161.685 73.8416C161.724 73.8912 161.777 73.9273 161.837 73.9447C161.912 73.9622 161.991 73.9517 162.06 73.9152C162.161 73.8562 162.245 73.7715 162.304 73.6696C162.349 73.6028 162.389 73.5331 162.424 73.4608C162.464 73.3726 162.496 73.2804 162.517 73.1857C162.517 73.1292 162.537 73.0727 162.544 73.0162C162.546 72.9458 162.529 72.8762 162.495 72.8148C162.477 72.7844 162.452 72.7594 162.421 72.7421C162.391 72.7249 162.356 72.716 162.321 72.7165C162.286 72.717 162.252 72.7262 162.222 72.7434C162.192 72.7606 162.166 72.7851 162.148 72.8148L162.153 72.8025Z" fill="black"/>
<path d="M84.0377 78.0076H149.96V79.2456H84.0377V78.0076Z" fill="white"/>
<path d="M90.227 80.3314C91.1647 80.3314 91.9248 79.5681 91.9248 78.6266C91.9248 77.6851 91.1647 76.9219 90.227 76.9219C89.2894 76.9219 88.5292 77.6851 88.5292 78.6266C88.5292 79.5681 89.2894 80.3314 90.227 80.3314Z" fill="black"/>
<path d="M44.4262 61.2623C49.9105 57.9877 55.2116 54.4132 60.3055 50.5549C64.8802 47.0889 69.2029 43.1144 74.3403 40.4836C76.8356 39.2039 79.556 38.2901 82.3742 38.1967C85.278 38.1009 88.0864 38.9337 90.6306 40.3019C95.8634 43.1267 99.6822 47.7914 104.064 51.6971C106.106 53.5173 108.44 55.5733 111.112 56.3643C113.666 57.1012 115.713 55.9369 117.827 54.6448C118.893 53.9889 120.029 53.3232 121.31 53.2299C122.534 53.139 123.737 53.6008 124.853 54.0675C127.008 54.969 129.178 55.9786 131.458 54.8438C132.652 54.2469 133.66 53.2274 135 52.9376C136.468 52.6158 137.982 53.2864 139.431 53.4829C142.193 53.8538 144.813 52.1221 146.924 50.5352C151.403 47.1773 154.725 42.5912 158.852 38.8477C163.075 35.0182 168.325 32.0754 174.189 33.2176C180.148 34.3795 184.759 38.6782 188.551 43.1759C189.5 44.3009 190.418 45.4529 191.335 46.6025C191.58 46.9194 192.023 46.4723 191.778 46.1604C188.157 41.5325 184.331 36.6492 178.971 33.9693C176.469 32.719 173.682 31.9378 170.869 32.0557C168.178 32.1663 165.614 33.0702 163.302 34.409C158.388 37.2609 154.882 41.8101 150.97 45.8189C148.925 47.9167 146.738 49.9088 144.194 51.3827C142.838 52.1687 141.39 52.8688 139.79 52.7214C138.352 52.5888 136.972 51.9845 135.507 52.068C134.215 52.1515 133.183 52.8369 132.128 53.5222C130.939 54.2935 129.772 54.7799 128.341 54.49C125.978 54.016 123.916 52.3186 121.425 52.4242C118.991 52.5298 117.188 54.3451 115.065 55.308C112.051 56.6811 109.228 54.8315 106.87 53.0162C102.155 49.3881 98.4541 44.5907 93.5467 41.1985C91.2471 39.6067 88.6833 38.3122 85.9263 37.7595C83.3137 37.2617 80.6195 37.4126 78.0783 38.1992C72.7673 39.7909 68.3125 43.4141 64.0509 46.8285C58.9413 50.9225 53.6571 54.7709 48.1985 58.3736C46.8839 59.2415 45.558 60.0906 44.2207 60.9209C44.1794 60.9511 44.1508 60.9956 44.1405 61.0459C44.1301 61.0961 44.1388 61.1484 44.1648 61.1925C44.1907 61.2367 44.2321 61.2695 44.2809 61.2847C44.3297 61.2999 44.3823 61.2963 44.4286 61.2746L44.4262 61.2623ZM53.5682 25.6765C55.842 25.2752 58.1738 25.3488 60.418 25.8926C60.4583 25.9019 60.5002 25.9008 60.5398 25.8894C60.5795 25.878 60.6157 25.8568 60.645 25.8276C60.6743 25.7984 60.6957 25.7623 60.7074 25.7226C60.719 25.6828 60.7205 25.6408 60.7116 25.6003C60.6287 25.3226 60.6339 25.0259 60.7263 24.7513C60.8188 24.4767 60.9941 24.2377 61.2278 24.0675C61.4802 23.9062 61.7786 23.833 62.0767 23.8592C62.3748 23.8854 62.656 24.0095 62.8766 24.2125C62.92 24.2528 62.975 24.2781 63.0337 24.2847C63.0924 24.2914 63.1517 24.2789 63.2029 24.2493C63.254 24.2196 63.2944 24.1743 63.318 24.1199C63.3416 24.0655 63.3473 24.005 63.3341 23.9472C62.9818 21.9378 63.5029 19.4569 65.3524 18.3318C67.4929 17.0324 70.1668 18.1132 71.8034 19.7099C72.8382 20.7194 73.626 21.9427 74.3574 23.1808C74.4944 23.4117 74.9372 23.4043 74.9812 23.0972C75.1574 21.9305 76.383 21.2181 77.5034 21.336C78.8294 21.4736 79.8373 22.5789 80.4146 23.704C80.4461 23.7558 80.4902 23.7987 80.5429 23.8284C80.5956 23.8581 80.6551 23.8738 80.7155 23.8738C80.776 23.8738 80.8354 23.8581 80.8881 23.8284C80.9408 23.7987 80.985 23.7558 81.0164 23.704C81.2953 23.0972 81.946 22.8541 82.5797 22.8835C83.3918 22.9204 84.094 23.4043 84.7936 23.7678C84.8605 23.8033 84.9385 23.8114 85.0112 23.7905C85.0839 23.7697 85.1458 23.7214 85.184 23.6559C85.2222 23.5903 85.2337 23.5125 85.2161 23.4386C85.1985 23.3647 85.1532 23.3005 85.0896 23.2594C84.3288 22.6993 83.3772 22.1589 82.4109 22.181C81.6036 22.1982 80.7669 22.5863 80.4146 23.3503H81.0164C80.3119 21.9796 79.0324 20.7293 77.4227 20.631C76.0479 20.55 74.5336 21.4785 74.3232 22.9155L74.947 22.832C73.5575 20.5082 71.8132 18.0862 69.0757 17.3394C67.8336 16.9705 66.4994 17.0764 65.3303 17.6367C64.3162 18.1888 63.5344 19.0898 63.1286 20.1741C62.6536 21.423 62.5416 22.7818 62.8057 24.0921L63.2632 23.8243C62.9553 23.5426 62.5641 23.3699 62.1492 23.3326C61.7344 23.2954 61.3188 23.3956 60.966 23.618C60.6399 23.8479 60.395 24.176 60.267 24.555C60.1391 24.9339 60.1345 25.3439 60.2541 25.7256L60.5453 25.4333C58.2181 24.9096 55.809 24.8687 53.4655 25.3129C53.2208 25.3596 53.3309 25.7182 53.5658 25.6765H53.5682ZM110.025 31.2304C113.812 31.1354 117.601 31.2419 121.377 31.5497C121.427 31.5471 121.477 31.5316 121.52 31.5044C121.563 31.4773 121.599 31.4395 121.623 31.3947C121.648 31.3499 121.66 31.2996 121.66 31.2484C121.66 31.1973 121.646 31.1471 121.621 31.1026C121.429 30.7172 121.379 30.2762 121.478 29.857C121.578 29.4379 121.822 29.0674 122.167 28.8108C122.539 28.5757 122.983 28.4851 123.417 28.5562C123.851 28.6272 124.244 28.8549 124.523 29.1965C124.716 29.4298 125.073 29.2235 125.085 28.9508C125.154 27.3296 125.261 25.3547 126.68 24.2837C128.204 23.1439 130.017 24.2837 131.257 25.2982C131.48 25.4849 131.959 25.3964 131.915 25.0255C131.712 23.2864 131.49 21.3409 132.495 19.8057C133.351 18.489 134.868 17.7325 136.292 17.2068C137.17 16.8826 138.093 16.5853 139.037 16.5853C139.872 16.599 140.686 16.8549 141.38 17.3222C142.802 18.2385 143.851 19.7246 144.634 21.196C145.56 22.9632 146.154 24.8868 146.386 26.8703C146.389 26.9685 146.423 27.0632 146.484 27.1404C146.544 27.2176 146.628 27.2732 146.723 27.299C146.817 27.3249 146.917 27.3196 147.009 27.284C147.1 27.2484 147.177 27.1843 147.23 27.1012C147.631 26.5694 148.193 26.1822 148.831 25.9976C149.47 25.8129 150.151 25.8407 150.772 26.0769C151.383 26.3471 151.891 26.8075 152.222 27.3901C152.552 27.9726 152.687 28.6464 152.607 29.3119C152.541 29.759 153.116 30.0832 153.377 29.6386C153.513 29.3912 153.728 29.1967 153.987 29.0863C154.246 28.9758 154.534 28.9558 154.806 29.0295C154.887 29.0519 154.973 29.0413 155.046 28.9998C155.119 28.9583 155.173 28.8895 155.195 28.8084C155.217 28.7273 155.207 28.6406 155.166 28.5673C155.124 28.4941 155.056 28.4403 154.975 28.4178C154.555 28.2695 154.098 28.2671 153.676 28.4109C153.255 28.5548 152.894 28.8366 152.651 29.2112L153.421 29.5379C153.585 28.6642 153.444 27.7606 153.022 26.9788C152.601 26.1971 151.924 25.585 151.106 25.2452C150.288 24.9055 149.378 24.8588 148.529 25.1132C147.681 25.3675 146.946 25.9073 146.447 26.6418L147.291 26.8703C147.077 24.935 146.539 23.0499 145.701 21.2942C144.886 19.619 143.744 17.9953 142.261 16.8727C141.548 16.3127 140.707 15.9388 139.815 15.7845C138.751 15.6628 137.673 15.7967 136.671 16.1751C135.039 16.7155 133.322 17.4819 132.199 18.8403C130.731 20.6138 130.868 22.8786 131.138 25.0329L131.798 24.7578C130.33 23.559 128.195 22.321 126.377 23.6057C124.664 24.8192 124.491 27.0201 124.42 28.9508L124.98 28.7052C124.604 28.2482 124.072 27.9489 123.488 27.8664C122.903 27.7839 122.31 27.9241 121.823 28.2594C121.337 28.5947 120.993 29.1009 120.859 29.678C120.726 30.2552 120.813 30.8616 121.103 31.3778L121.347 30.9307C117.56 30.7416 113.783 30.6998 109.996 30.8398C109.951 30.845 109.91 30.8665 109.88 30.9003C109.85 30.934 109.834 30.9776 109.834 31.0228C109.834 31.068 109.85 31.1116 109.88 31.1453C109.91 31.1791 109.951 31.2006 109.996 31.2058L110.025 31.2304ZM171.799 22.6625C173.344 22.4965 174.903 22.5048 176.447 22.687C176.64 22.7116 176.721 22.4709 176.652 22.3284C176.552 22.1221 176.774 21.928 176.948 21.8764C177.194 21.8311 177.447 21.8514 177.682 21.9354C178.074 22.08 178.498 22.1082 178.905 22.0164C179.211 21.9206 179.081 21.4392 178.773 21.5251C178.105 21.7315 177.452 21.1665 176.77 21.3974C176.654 21.4321 176.547 21.4913 176.456 21.571C176.365 21.6507 176.292 21.749 176.243 21.8593C176.193 21.9697 176.167 22.0895 176.167 22.2107C176.167 22.3318 176.193 22.4515 176.244 22.5617L176.449 22.2031C174.903 22.0429 173.344 22.0569 171.801 22.2449C171.556 22.2744 171.539 22.6821 171.801 22.6551L171.799 22.6625ZM114.17 69.0491V73.1808C114.17 73.3314 114.209 73.4794 114.282 73.6105C114.356 73.7417 114.462 73.8515 114.591 73.9295C114.719 74.0075 114.865 74.051 115.015 74.0558C115.165 74.0606 115.314 74.0266 115.447 73.957L119.361 71.8912C119.502 71.8168 119.62 71.7052 119.702 71.5684C119.784 71.4316 119.828 71.2748 119.828 71.115C119.828 70.9551 119.784 70.7983 119.702 70.6615C119.62 70.5247 119.502 70.4131 119.361 70.3387L115.447 68.2729C115.314 68.2025 115.165 68.1679 115.015 68.1724C114.864 68.1769 114.718 68.2203 114.589 68.2984C114.461 68.3765 114.355 68.4867 114.281 68.6183C114.208 68.7498 114.169 68.8982 114.17 69.0491ZM127.187 70.1963V72.0336C127.187 72.1006 127.204 72.1664 127.237 72.2248C127.269 72.2831 127.317 72.332 127.374 72.3668C127.431 72.4016 127.496 72.421 127.562 72.4234C127.629 72.4257 127.695 72.4107 127.754 72.38L129.498 71.4588C129.561 71.4256 129.613 71.3759 129.65 71.3151C129.686 71.2543 129.705 71.1847 129.705 71.1137C129.705 71.0428 129.686 70.9731 129.65 70.9123C129.613 70.8515 129.561 70.8018 129.498 70.7686L127.764 69.8401C127.704 69.8065 127.636 69.7896 127.567 69.7912C127.498 69.7927 127.43 69.8126 127.372 69.8489C127.313 69.8851 127.265 69.9364 127.232 69.9974C127.2 70.0585 127.184 70.1271 127.187 70.1963Z" fill="white"/>
<path d="M129.178 70.2184V72.0115C129.178 72.077 129.195 72.1413 129.227 72.1983C129.259 72.2553 129.305 72.303 129.361 72.3369C129.417 72.3707 129.481 72.3895 129.546 72.3915C129.611 72.3934 129.676 72.3785 129.733 72.3481L131.446 71.4515C131.507 71.4191 131.558 71.3707 131.593 71.3114C131.629 71.2521 131.648 71.1842 131.648 71.1149C131.648 71.0457 131.629 70.9778 131.593 70.9185C131.558 70.8592 131.507 70.8108 131.446 70.7784L129.733 69.8818C129.676 69.8514 129.611 69.8365 129.546 69.8384C129.481 69.8404 129.417 69.8592 129.361 69.893C129.305 69.9269 129.259 69.9746 129.227 70.0316C129.195 70.0886 129.178 70.1529 129.178 70.2184ZM135.634 70.2184V72.0115C135.634 72.077 135.651 72.1413 135.683 72.1983C135.715 72.2553 135.761 72.303 135.817 72.3369C135.873 72.3707 135.937 72.3895 136.002 72.3915C136.067 72.3934 136.132 72.3785 136.189 72.3481L137.889 71.4515C137.95 71.4191 138.001 71.3707 138.037 71.3114C138.073 71.2521 138.091 71.1842 138.091 71.1149C138.091 71.0457 138.073 70.9778 138.037 70.9185C138.001 70.8592 137.95 70.8108 137.889 70.7784L136.189 69.8818C136.132 69.8514 136.067 69.8365 136.002 69.8384C135.937 69.8404 135.873 69.8592 135.817 69.893C135.761 69.9269 135.715 69.9746 135.683 70.0316C135.651 70.0886 135.634 70.1529 135.634 70.2184Z" fill="white"/>
<path d="M137.804 69.8376H138.682V72.3923H137.804V69.8376ZM106.813 72.0336V70.1963C106.816 70.1271 106.8 70.0585 106.768 69.9974C106.735 69.9364 106.687 69.8851 106.628 69.8489C106.57 69.8126 106.502 69.7927 106.433 69.7912C106.364 69.7896 106.296 69.8065 106.236 69.8401L104.492 70.7588C104.429 70.792 104.377 70.8417 104.341 70.9025C104.304 70.9633 104.285 71.0329 104.285 71.1039C104.285 71.1749 104.304 71.2445 104.341 71.3053C104.377 71.3661 104.429 71.4158 104.492 71.449L106.236 72.3702C106.295 72.4029 106.361 72.4197 106.428 72.419C106.496 72.4183 106.562 72.4002 106.62 72.3663C106.678 72.3324 106.726 72.2839 106.76 72.2256C106.794 72.1673 106.812 72.1012 106.813 72.0336Z" fill="white"/>
<path d="M104.822 72.0115V70.2184C104.822 70.1529 104.805 70.0886 104.773 70.0316C104.741 69.9746 104.695 69.9269 104.639 69.893C104.583 69.8592 104.519 69.8404 104.454 69.8384C104.389 69.8365 104.324 69.8514 104.267 69.8818L102.566 70.7784C102.506 70.8108 102.455 70.8592 102.419 70.9185C102.383 70.9778 102.365 71.0457 102.365 71.1149C102.365 71.1842 102.383 71.2521 102.419 71.3114C102.455 71.3707 102.506 71.4191 102.566 71.4515L104.267 72.3481C104.324 72.3785 104.389 72.3934 104.454 72.3915C104.519 72.3895 104.583 72.3707 104.639 72.3369C104.695 72.303 104.741 72.2553 104.773 72.1983C104.805 72.1413 104.822 72.077 104.822 72.0115ZM98.3661 72.0115V70.2184C98.366 70.1529 98.349 70.0886 98.3169 70.0316C98.2848 69.9746 98.2386 69.9269 98.1828 69.893C98.127 69.8592 98.0634 69.8404 97.9982 69.8384C97.9331 69.8365 97.8685 69.8514 97.8107 69.8818L96.1105 70.7784C96.0496 70.8108 95.9986 70.8592 95.963 70.9185C95.9275 70.9778 95.9087 71.0457 95.9087 71.1149C95.9087 71.1842 95.9275 71.2521 95.963 71.3114C95.9986 71.3707 96.0496 71.4191 96.1105 71.4515L97.8107 72.3481C97.8685 72.3785 97.9331 72.3934 97.9982 72.3915C98.0634 72.3895 98.127 72.3707 98.1828 72.3369C98.2386 72.303 98.2848 72.2553 98.3169 72.1983C98.349 72.1413 98.366 72.077 98.3661 72.0115Z" fill="white"/>
<path d="M96.1986 72.3923H95.3203V69.8376H96.1986V72.3923Z" fill="white"/>
<path d="M165.399 85.6519C162.59 84.4237 159.256 85.0747 156.592 86.5854C153.928 88.0961 151.797 90.3805 149.713 92.6281L144.82 97.9094C143.927 98.8723 143.02 99.8475 141.906 100.538C139.193 102.215 135.771 101.948 132.586 101.867C127.979 101.746 123.321 102.137 118.918 103.508C117.661 103.901 116.205 104.662 116.176 105.984C115.662 105.492 114.749 105.711 114.294 106.259C113.839 106.806 113.729 107.561 113.688 108.273C113.629 109.206 113.651 110.142 113.754 111.071C113.817 111.66 113.93 112.279 114.319 112.724C114.708 113.169 115.464 113.338 115.887 112.925C115.642 113.878 116.902 114.448 117.866 114.613L125.45 115.907C128.473 116.426 131.519 116.946 134.587 116.919C137.09 116.897 139.575 116.514 142.048 116.128C144.067 115.817 146.107 115.497 148.01 114.75C149.655 114.07 151.197 113.16 152.59 112.048C160.232 106.18 164.506 97.0496 170.018 89.1327" fill="black"/>
<path d="M165.516 85.4456C162.148 83.9349 158.282 84.9887 155.342 86.9735C153.802 88.0517 152.377 89.2864 151.09 90.6581C149.664 92.1319 148.287 93.6426 146.892 95.141C146.158 95.9303 145.424 96.7205 144.69 97.5114C144.06 98.2213 143.388 98.8923 142.677 99.5208C141.265 100.71 139.536 101.28 137.726 101.464C135.915 101.648 134.056 101.525 132.238 101.488C130.197 101.438 128.155 101.511 126.122 101.709C124.103 101.902 122.102 102.256 120.139 102.768C118.73 103.142 116.834 103.576 116.068 104.979C115.905 105.281 115.814 105.618 115.804 105.961L116.418 105.716C116.15 105.498 115.821 105.371 115.477 105.352C115.133 105.334 114.792 105.425 114.502 105.613C113.81 106.02 113.507 106.819 113.396 107.578C113.277 108.52 113.257 109.471 113.338 110.417C113.396 111.253 113.453 112.198 113.998 112.874C114.51 113.51 115.483 113.711 116.119 113.151L115.552 112.827C115.366 113.709 116.026 114.318 116.775 114.64C117.193 114.811 117.631 114.93 118.079 114.994L120.004 115.323C122.517 115.753 125.024 116.202 127.541 116.605C130.059 117.008 132.542 117.32 135.064 117.254C137.586 117.187 140.02 116.789 142.476 116.406C144.81 116.043 147.124 115.61 149.277 114.564C151.261 113.596 153.05 112.23 154.689 110.759C157.778 107.983 160.315 104.65 162.622 101.211C164.968 97.7153 167.099 94.0872 169.448 90.5844C169.734 90.157 170.022 89.7345 170.316 89.312C170.561 88.9484 169.974 88.6021 169.722 88.9656C167.405 92.299 165.333 95.792 163.116 99.199C160.9 102.606 158.586 105.9 155.753 108.779C154.32 110.259 152.74 111.586 151.036 112.741C150.117 113.367 149.137 113.899 148.113 114.33C147.044 114.756 145.937 115.08 144.808 115.298C143.665 115.544 142.511 115.704 141.358 115.88C140.152 116.067 138.944 116.246 137.73 116.372C135.296 116.625 132.841 116.605 130.411 116.313C127.965 116.028 125.55 115.576 123.128 115.153L119.459 114.527C118.531 114.367 117.431 114.328 116.628 113.778C116.369 113.598 116.139 113.345 116.217 113.009C116.235 112.935 116.229 112.858 116.2 112.788C116.171 112.719 116.12 112.66 116.055 112.623C115.989 112.585 115.914 112.569 115.839 112.578C115.764 112.587 115.694 112.62 115.64 112.672C115.517 112.757 115.372 112.803 115.223 112.803C115.074 112.803 114.928 112.757 114.806 112.672C114.498 112.456 114.287 112.127 114.218 111.756C114.031 110.898 113.958 110.018 114.001 109.14C114.001 108.361 113.989 107.448 114.375 106.745C114.649 106.254 115.4 105.762 115.919 106.232C115.969 106.28 116.032 106.312 116.1 106.325C116.169 106.338 116.239 106.331 116.304 106.305C116.368 106.28 116.424 106.236 116.465 106.179C116.505 106.123 116.529 106.056 116.533 105.986C116.616 104.461 118.666 103.945 119.84 103.613C121.751 103.08 123.701 102.704 125.672 102.491C127.642 102.278 129.623 102.185 131.605 102.211C133.405 102.228 135.211 102.363 137.014 102.255C138.726 102.149 140.458 101.813 141.953 100.928C143.572 99.9703 144.803 98.4547 146.068 97.0914C147.475 95.5717 148.881 94.0495 150.285 92.5249C151.512 91.1529 152.824 89.8607 154.214 88.6561C156.925 86.3962 160.487 84.7111 164.08 85.4923C164.508 85.5866 164.927 85.7173 165.333 85.8828C165.577 85.9811 165.758 85.5586 165.514 85.4481L165.516 85.4456ZM106.525 107.733C106.708 107.462 106.953 107.24 107.239 107.084C107.55 106.892 107.868 106.716 108.191 106.546C108.508 106.371 108.84 106.222 109.181 106.101C109.35 106.044 109.523 105.999 109.698 105.966C109.884 105.934 110.074 105.944 110.258 105.902C110.309 105.888 110.353 105.857 110.385 105.814C110.417 105.772 110.434 105.72 110.434 105.667C110.434 105.614 110.417 105.562 110.385 105.519C110.353 105.477 110.309 105.446 110.258 105.431C109.856 105.385 109.45 105.439 109.074 105.588C108.676 105.72 108.294 105.892 107.931 106.101C107.295 106.463 106.52 106.838 106.148 107.511C106.119 107.562 106.111 107.621 106.125 107.678C106.14 107.734 106.176 107.782 106.226 107.811C106.276 107.84 106.336 107.849 106.392 107.834C106.448 107.819 106.495 107.783 106.525 107.733ZM106.821 109.56C107.066 109.209 107.384 108.915 107.753 108.698C107.93 108.593 108.118 108.507 108.313 108.44C108.528 108.376 108.747 108.327 108.969 108.293C109.018 108.277 109.06 108.245 109.088 108.201C109.116 108.157 109.127 108.105 109.12 108.054C109.113 108.002 109.088 107.955 109.049 107.921C109.011 107.886 108.961 107.866 108.91 107.865C108.415 107.912 107.939 108.08 107.525 108.356C107.108 108.615 106.75 108.96 106.476 109.368C106.334 109.582 106.676 109.779 106.821 109.57V109.56ZM107.016 111.66C107.213 111.327 107.496 111.053 107.836 110.87C108.175 110.686 108.559 110.599 108.944 110.619C109.009 110.619 109.071 110.593 109.117 110.547C109.163 110.501 109.189 110.438 109.189 110.373C109.189 110.308 109.163 110.246 109.117 110.199C109.071 110.153 109.009 110.128 108.944 110.128C108.479 110.106 108.017 110.218 107.613 110.451C107.209 110.684 106.88 111.027 106.664 111.442C106.651 111.465 106.642 111.491 106.638 111.517C106.635 111.544 106.636 111.571 106.643 111.597C106.65 111.623 106.662 111.647 106.678 111.669C106.694 111.69 106.714 111.708 106.737 111.722C106.761 111.735 106.786 111.744 106.813 111.748C106.839 111.751 106.866 111.75 106.892 111.743C106.918 111.736 106.942 111.724 106.964 111.708C106.985 111.692 107.003 111.671 107.016 111.648V111.66ZM107.86 113.832C108.03 113.578 108.245 113.357 108.494 113.181C108.622 113.087 108.759 113.004 108.903 112.935H108.925L108.983 112.911L109.096 112.871C109.177 112.844 109.26 112.822 109.34 112.803C109.4 112.784 109.45 112.744 109.481 112.689C109.512 112.635 109.521 112.571 109.507 112.51C109.489 112.449 109.449 112.398 109.394 112.366C109.339 112.335 109.274 112.326 109.213 112.341C108.858 112.428 108.525 112.589 108.234 112.812C107.943 113.035 107.702 113.316 107.525 113.638C107.505 113.682 107.502 113.731 107.517 113.777C107.531 113.823 107.562 113.862 107.604 113.887C107.645 113.911 107.694 113.919 107.741 113.908C107.788 113.898 107.83 113.871 107.858 113.832H107.86ZM110.436 114.163C110.447 114.173 110.456 114.184 110.463 114.195L110.434 114.154C110.453 114.181 110.475 114.207 110.5 114.23L110.537 114.271L110.505 114.227C110.527 114.256 110.545 114.287 110.559 114.321L110.537 114.269C110.552 114.304 110.561 114.341 110.566 114.38V114.321C110.571 114.358 110.571 114.396 110.566 114.434V114.375C110.562 114.407 110.553 114.438 110.542 114.468L110.564 114.414C110.554 114.438 110.542 114.461 110.527 114.483C110.511 114.509 110.5 114.539 110.496 114.57C110.492 114.601 110.494 114.632 110.502 114.662C110.518 114.703 110.545 114.739 110.579 114.767C110.614 114.794 110.655 114.811 110.699 114.817C110.742 114.823 110.786 114.817 110.827 114.799C110.867 114.782 110.902 114.754 110.928 114.719C110.97 114.644 110.995 114.562 111.003 114.478C111.011 114.393 111.002 114.308 110.975 114.227C110.947 114.137 110.901 114.053 110.84 113.982C110.808 113.95 110.774 113.922 110.737 113.896C110.686 113.865 110.628 113.848 110.568 113.847C110.535 113.847 110.502 113.856 110.473 113.874C110.439 113.894 110.413 113.925 110.4 113.962C110.386 113.995 110.382 114.032 110.388 114.068C110.395 114.104 110.411 114.137 110.436 114.163Z" fill="black"/>
<path d="M111.016 103.765C112.66 103.461 113.986 104.819 114.556 106.222C114.579 106.297 114.629 106.36 114.697 106.399C114.765 106.438 114.845 106.449 114.921 106.431C114.958 106.42 114.994 106.403 115.025 106.379C115.056 106.354 115.082 106.324 115.101 106.29C115.121 106.256 115.133 106.218 115.138 106.179C115.142 106.14 115.139 106.1 115.129 106.062C114.805 105.207 114.247 104.461 113.519 103.91C113.149 103.639 112.724 103.453 112.275 103.365C111.826 103.277 111.363 103.289 110.918 103.399C110.674 103.463 110.784 103.805 111.016 103.763V103.765Z" fill="black"/>
<path d="M71.0328 87.3739C71.8074 87.5285 72.5968 87.5952 73.3862 87.5728C73.6602 87.5728 73.6602 87.1356 73.3862 87.1454C72.6157 87.1619 71.8451 87.1167 71.0817 87.0103C70.8762 86.9833 70.8371 87.3296 71.0328 87.3739ZM143.421 103.873C143.315 104.502 143.342 105.146 143.501 105.763C143.659 106.38 143.945 106.956 144.341 107.455C144.383 107.497 144.441 107.52 144.501 107.52C144.561 107.52 144.618 107.497 144.661 107.455C144.7 107.41 144.721 107.353 144.721 107.294C144.721 107.235 144.7 107.178 144.661 107.133C144.311 106.695 144.054 106.19 143.906 105.648C143.757 105.107 143.72 104.54 143.797 103.984C143.834 103.738 143.45 103.618 143.408 103.876L143.421 103.873ZM145.449 103.21C145.503 104.162 145.802 105.082 146.317 105.883C146.469 106.116 146.846 105.883 146.689 105.664C146.192 104.935 145.891 104.089 145.816 103.208C145.796 102.962 145.434 102.962 145.449 103.208V103.21ZM165.279 85.1336C166.253 85.158 167.224 85.0177 168.151 84.7185C169.13 84.4532 170.091 84.1855 171.055 83.8931C172.019 83.6008 172.961 83.284 173.895 82.9229C174.83 82.5618 175.749 82.1982 176.745 82.1368C176.99 82.1221 176.99 81.7241 176.745 81.7389C175.799 81.8344 174.872 82.0772 174 82.4586C173.068 82.8172 172.129 83.1489 171.175 83.4412C170.221 83.7335 169.24 84.0061 168.268 84.2763C167.297 84.5465 166.311 84.8069 165.279 84.7381C165.034 84.7209 165.034 85.114 165.279 85.1312V85.1336Z" fill="#1D3557"/>
</g>
<defs>
<clipPath id="clip0_2290_47">
<rect width="234" height="178" fill="white"/>
</clipPath>
</defs>
</svg>
